<svg xmlns="http://www.w3.org/2000/svg" width="221.53" height="189.942" viewBox="0 0 221.53 189.942">
    <defs>
        <style>
            .cls-1{fill:#f0f0f0}.cls-2{fill:#f5f5f5}.cls-3{fill:#e0e0e0}.cls-4{fill:#e6e6e6}.cls-5{fill:#ebebeb}.cls-7{fill:#7b7b7b}.cls-8{fill:#ffc3bd}.cls-17,.cls-9{fill:#263238}.cls-10{opacity:.2}.cls-11{fill:#46305e}.cls-12{fill:#fc0053}.cls-13{opacity:.3}.cls-14{fill:#5e437b}.cls-16{fill:#9978d8}.cls-17{opacity:.1}.cls-21{fill:#407bff}.cls-35{fill:#ffb573}.cls-38{fill:#441ee2}.cls-40{fill:#8b8b8b}
        </style>
    </defs>
    <g id="Group_1255">
        <g id="Group_22" transform="translate(4.272)">
            <g id="Group_9" transform="translate(0 45.182)">
                <g id="Group_5" transform="translate(52.049 14.432)">
                    <g id="Group_4">
                        <path id="Rectangle_8" d="M0 0H6.897V101.033H0z" class="cls-1"/>
                        <path id="Rectangle_9" d="M0 0H38.207V3.485H0z" class="cls-1" transform="translate(1.82 101.033)"/>
                        <path id="Rectangle_10" d="M0 0H34.95V101.033H0z" class="cls-2" transform="rotate(180 20.923 50.517)"/>
                        <path id="Rectangle_11" d="M0 0H27.497V18.04H0z" class="cls-1" transform="rotate(180 19.06 35.325)"/>
                        <path id="Rectangle_12" d="M0 0H27.497V18.04H0z" class="cls-1" transform="rotate(180 19.06 47.131)"/>
                        <rect id="Rectangle_13" width="9.359" height="2.474" class="cls-2" rx="1.237" transform="translate(19.693 60.392)"/>
                        <rect id="Rectangle_14" width="9.359" height="2.474" class="cls-2" rx="1.237" transform="translate(19.693 84.004)"/>
                        <path id="Rectangle_15" d="M0 0H27.497V18.04H0z" class="cls-1" transform="rotate(180 19.06 11.806)"/>
                        <path id="Rectangle_16" d="M0 0H27.497V18.04H0z" class="cls-1" transform="rotate(180 19.06 23.518)"/>
                        <rect id="Rectangle_17" width="9.359" height="2.474" class="cls-2" rx="1.237" transform="translate(19.693 13.355)"/>
                        <rect id="Rectangle_18" width="9.359" height="2.474" class="cls-2" rx="1.237" transform="translate(19.693 36.78)"/>
                    </g>
                </g>
                <g id="Group_8">
                    <g id="Group_7">
                        <path id="Rectangle_19" d="M0 0H20.7V101.033H0z" class="cls-1" transform="translate(0 14.432)"/>
                        <path id="Rectangle_20" d="M0 0H51.712V3.485H0z" class="cls-1" transform="translate(2.118 115.465)"/>
                        <path id="Rectangle_21" d="M0 0H34.95V101.033H0z" class="cls-2" transform="rotate(180 27.825 57.733)"/>
                        <g id="Group_6" transform="translate(23.686)">
                            <path id="Path_3" d="M142.236 179.578A9.021 9.021 0 1 1 126 174.167h14.425a8.971 8.971 0 0 1 1.811 5.411z" class="cls-3" transform="translate(-113.258 -174.167)"/>
                            <path id="Path_4" d="M120.577 182.347a7.763 7.763 0 1 1-13.97-4.656h12.413a7.718 7.718 0 0 1 1.557 4.656z" class="cls-1" transform="translate(-105.051 -175.678)"/>
                        </g>
                        <path id="Rectangle_22" d="M0 0H27.497V18.04H0z" class="cls-1" transform="rotate(180 25.962 42.541)"/>
                        <path id="Rectangle_23" d="M0 0H27.497V18.04H0z" class="cls-1" transform="rotate(180 25.962 54.347)"/>
                        <rect id="Rectangle_24" width="9.359" height="2.474" class="cls-2" rx="1.237" transform="translate(33.496 74.824)"/>
                        <rect id="Rectangle_25" width="9.359" height="2.474" class="cls-2" rx="1.237" transform="translate(33.496 98.436)"/>
                        <path id="Rectangle_26" d="M0 0H27.497V18.04H0z" class="cls-1" transform="rotate(180 25.962 19.022)"/>
                        <path id="Rectangle_27" d="M0 0H27.497V18.04H0z" class="cls-1" transform="rotate(180 25.962 30.735)"/>
                        <rect id="Rectangle_28" width="9.359" height="2.474" class="cls-2" rx="1.237" transform="translate(33.496 27.787)"/>
                        <rect id="Rectangle_29" width="9.359" height="2.474" class="cls-2" rx="1.237" transform="translate(33.496 51.212)"/>
                    </g>
                </g>
            </g>
            <g id="Group_17" transform="translate(4.108)">
                <g id="Group_14" transform="translate(0 1.905)">
                    <g id="Group_12" transform="translate(0 2.851)">
                        <g id="Group_11">
                            <g id="Group_10">
                                <path id="Rectangle_30" d="M0 0H71.557V6.151H0z" class="cls-1" transform="rotate(180 42.9 12.304)"/>
                                <circle id="Ellipse_1" cx="8.624" cy="8.624" r="8.624" class="cls-4" transform="rotate(-9.217 47.962 -381.009)"/>
                                <path id="Rectangle_31" d="M0 0H14.242V6.151H0z" class="cls-4" transform="translate(0 18.457)"/>
                            </g>
                        </g>
                    </g>
                    <g id="Group_13" transform="translate(31.947)">
                        <path id="Rectangle_32" d="M0 0H15.607V16.612H0z" class="cls-3" transform="rotate(180 16.042 10.654)"/>
                        <path id="Rectangle_33" d="M0 0H3.998V16.612H0z" class="cls-1" transform="translate(32.084 4.696)"/>
                        <path id="Rectangle_34" d="M0 0H13.376V21.308H0z" class="cls-3" transform="rotate(180 12.513 10.654)"/>
                        <path id="Rectangle_35" d="M0 0H2.723V21.308H0z" class="cls-5" transform="translate(25.026)"/>
                        <path id="Rectangle_36" d="M0 0H11.722V19.173H0z" class="cls-4" transform="rotate(180 9.53 10.654)"/>
                        <path id="Rectangle_37" d="M0 0H3.389V19.173H0z" class="cls-1" transform="translate(19.06 2.135)"/>
                        <path id="Rectangle_38" d="M0 0H15.607V16.612H0z" class="cls-1" transform="rotate(180 7.803 10.654)"/>
                        <path id="Rectangle_39" fill="#fafafa" d="M0 0H2.256V16.612H0z" transform="translate(15.607 4.696)"/>
                    </g>
                </g>
                <g id="Group_16" transform="translate(11.46)">
                    <g id="Group_15">
                        <path id="Rectangle_40" d="M0 0H10.683V22.462H0z" class="cls-4" transform="rotate(180 15.401 11.607)"/>
                        <path id="Rectangle_41" d="M0 0H3.088V22.462H0z" class="cls-1" transform="translate(30.802 .751)"/>
                        <path id="Path_5" d="M101.952 99.858h13.771l3.319 20.482h-13.771z" class="cls-4" transform="translate(-95.603 -97.127)"/>
                        <path id="Path_6" d="M130.039 99.858h-3.981l3.319 20.482h3.981z" class="cls-1" transform="translate(-105.938 -97.127)"/>
                        <path id="Rectangle_42" d="M0 0H15.607V23.213H0z" class="cls-5" transform="rotate(180 7.803 11.607)"/>
                        <path id="Rectangle_43" d="M0 0H4.512V23.213H0z" class="cls-2" transform="translate(15.607)"/>
                    </g>
                </g>
            </g>
            <g id="Group_18" transform="translate(122.969 .751)">
                <path id="Rectangle_44" d="M0 0H81.899V61.139H0z" class="cls-1" transform="rotate(180 42.9 30.57)"/>
                <path id="Rectangle_45" d="M0 0H3.9V61.139H0z" class="cls-4"/>
            </g>
        </g>
        <g id="Shadow" transform="translate(0 177.004)">
            <ellipse id="_Path_" cx="110.765" cy="6.469" class="cls-2" rx="110.765" ry="6.469"/>
        </g>
        <g id="Character_1" transform="translate(20.933 34.994)">
            <path id="Path_12" d="M95.519 315.463a1.831 1.831 0 0 0-1.829 1.914l.072 1.582a3.045 3.045 0 0 0 2.9 2.525h.538l.526 1.754a2.771 2.771 0 0 0 2.647 1.969h44.206a5.681 5.681 0 0 0-1.938-4.28c.006-.043.024-.086.03-.129l.244-2.84a2.3 2.3 0 0 0-2.29-2.5z" class="cls-7" transform="translate(-93.154 -224.555)"/>
            <path id="Path_14" d="M127.137 377.483h-1.942l2.658-44.968h1.942z" class="cls-7" transform="translate(-106.661 -231.866)"/>
            <path id="Path_16" d="M177.169 377.483h1.942l-2.658-44.968h-1.942z" class="cls-7" transform="translate(-127.804 -231.866)"/>
            <path id="Path_18" d="M105.861 377.483h-1.942l2.658-44.968h1.942z" class="cls-7" transform="translate(-97.54 -231.866)"/>
            <path id="Path_20" d="M155.894 377.483h1.942l-2.658-44.968h-1.942z" class="cls-7" transform="translate(-118.683 -231.866)"/>
            <path id="Path_22" d="M195.221 395.979l4.656.031.746-10.744-4.656-.031z" class="cls-8" transform="translate(-136.683 -254.468)"/>
            <path id="Path_23" d="M199.748 401.85l-5.223-.034a.332.332 0 0 0-.347.315l-.281 4.13a.824.824 0 0 0 .808.832c1.818-.019 2.688-.121 4.985-.106 1.413.009 6.277.081 8.214-.15 1.9-.226 1.654-2.14.813-2.216-3.775-.34-6.866-1.442-8.172-2.481a1.308 1.308 0 0 0-.797-.29z" class="cls-9" transform="translate(-136.115 -261.576)"/>
            <path id="Path_24" d="M196.234 385.24l4.658.031-.387 5.538-4.658-.031z" class="cls-10" transform="translate(-136.952 -254.47)"/>
            <path id="Path_25" d="M143.148 283.814s34.352 1.77 34.4 15.1c.074 19.162-4.393 45.367-4.393 45.367l-8.505-.393s-2.313-26.461-2.142-41.418c-9.392-2.7-31.454 1.724-34.329-6.069a25.58 25.58 0 0 1-1.08-12.589z" class="cls-11" transform="translate(-107.332 -210.987)"/>
            <path id="Path_27" d="M191.3 390.164l9.848-.137.582-3.737-10.1-.159z" class="cls-11" transform="translate(-135.001 -254.852)"/>
            <path id="Path_28" d="M206.023 402.433a5.8 5.8 0 0 1-1.237-.175.108.108 0 0 1-.036-.194c.149-.1 1.471-.993 2.037-.767a.408.408 0 0 1 .25.309.6.6 0 0 1-.139.587 1.258 1.258 0 0 1-.875.24zm-.939-.33c.831.171 1.443.149 1.662-.065a.388.388 0 0 0 .079-.387.191.191 0 0 0-.118-.152c-.307-.122-1.081.265-1.622.601z" class="cls-9" transform="translate(-140.748 -261.338)"/>
            <path id="Path_29" d="M204.8 401.439a.107.107 0 0 1-.107-.1c0-.057-.1-1.395.372-1.844a.541.541 0 0 1 .46-.149.415.415 0 0 1 .391.331c.1.508-.6 1.473-1.06 1.746a.107.107 0 0 1-.056.016zm.647-1.88a.321.321 0 0 0-.233.094 2.4 2.4 0 0 0-.315 1.475c.406-.339.872-1.073.8-1.406-.013-.063-.048-.139-.206-.159z" class="cls-9" transform="translate(-140.74 -260.516)"/>
            <path id="Path_30" d="M158.2 220.76c.793 2.029 1.621 4.154 2.493 6.2s1.761 4.11 2.692 6.119 1.92 3.976 2.979 5.826c.528.924 1.088 1.816 1.656 2.629a12.945 12.945 0 0 0 1.7 2.036l-.818-.486a2.044 2.044 0 0 0-.96-.121 1.647 1.647 0 0 0-.609.188c-.207.133-.118.126-.016.041a5.487 5.487 0 0 0 .907-1.075 30.01 30.01 0 0 0 1.9-3.3c.611-1.184 1.191-2.416 1.765-3.66s1.14-2.52 1.7-3.754l3.364.927c-.2 1.461-.482 2.85-.784 4.27-.32 1.41-.7 2.812-1.142 4.222a28.608 28.608 0 0 1-1.72 4.279 11.761 11.761 0 0 1-1.541 2.329 5.651 5.651 0 0 1-1.661 1.33 4.416 4.416 0 0 1-1.608.487 4.339 4.339 0 0 1-1.99-.271l-.421-.167-.4-.318a18.59 18.59 0 0 1-2.922-3.019 35.23 35.23 0 0 1-2.157-3.079 69.479 69.479 0 0 1-3.512-6.273c-1.067-2.111-2.034-4.248-2.955-6.4-.9-2.17-1.778-4.3-2.572-6.562z" class="cls-8" transform="translate(-117.975 -183.954)"/>
            <path id="Path_31" d="M153.281 215.066c5.118 2.628 7.1 11.623 7.1 11.623l-10.136 6.77c-3.268-3.092-6.164-9.817-6.7-12.88-.816-4.704 3.655-8.635 9.736-5.513z" class="cls-12" transform="translate(-114.489 -181.034)"/>
            <path id="Path_32" d="M151.52 227.844c1.712 2.017 2.381 5.03 2.374 8.349l-3.527 2.351c-3.17-3-6-9.421-6.646-12.591 2.999-.476 6.497.347 7.799 1.891z" class="cls-13" transform="translate(-114.604 -186.123)"/>
            <path id="Path_33" d="M208.012 400.06l4.037-2.306-5.7-9.142-4.037 2.306z" class="cls-8" transform="translate(-139.722 -255.916)"/>
            <path id="Path_34" d="M215.009 401.426l-4.535 2.59a.332.332 0 0 0-.142.446l1.829 3.714a.824.824 0 0 0 1.117.315c1.564-.929 2.265-1.453 4.259-2.592 1.227-.7 5.463-2.951 7.157-3.918 1.657-.946.689-2.615-.116-2.357-3.608 1.159-7.08 1.9-8.732 1.653a1.309 1.309 0 0 0-.837.149z" class="cls-9" transform="translate(-143.146 -260.625)"/>
            <path id="Path_35" d="M202.311 390.923l4.039-2.307 3.087 4.955-4.039 2.306z" class="cls-10" transform="translate(-139.723 -255.917)"/>
            <path id="Path_36" d="M125.659 283.814s27.548 1.2 29.46 14.392c2.093 14.448 14.844 47.824 14.844 47.824l-7.394 4.223s-20.871-31.261-22-46.176c-8.466 1.72-29.557 1.229-32.432-6.564-2.351-6.376.507-13.461.507-13.461z" class="cls-14" transform="translate(-98.952 -210.987)"/>
            <path id="Path_38" d="M200.7 394.719l9.412-5.359-1.7-4.125-10.112 6.256z" class="cls-14" transform="translate(-138.003 -254.468)"/>
            <path id="Path_39" d="M220.781 401.571a5.8 5.8 0 0 1-1.158.47.107.107 0 0 1-.113-.033.108.108 0 0 1-.016-.117c.078-.163.775-1.6 1.378-1.685a.405.405 0 0 1 .371.141.594.594 0 0 1 .174.578 1.252 1.252 0 0 1-.636.646zm-.977.186c.8-.269 1.324-.595 1.4-.89a.389.389 0 0 0-.125-.374.191.191 0 0 0-.179-.073c-.321.048-.8.772-1.1 1.337z" class="cls-9" transform="translate(-147.085 -260.884)"/>
            <path id="Path_40" d="M219.186 401.74a.117.117 0 0 1-.049.014.109.109 0 0 1-.094-.047c-.032-.047-.786-1.156-.6-1.782a.541.541 0 0 1 .324-.359.415.415 0 0 1 .5.09 2.4 2.4 0 0 1-.042 2.043.107.107 0 0 1-.039.041zm-.383-1.952a.321.321 0 0 0-.155.2 2.409 2.409 0 0 0 .467 1.434 2.193 2.193 0 0 0-.009-1.62c-.043-.049-.111-.1-.258-.034a.439.439 0 0 0-.048.02z" class="cls-9" transform="translate(-146.625 -260.592)"/>
            <path id="Path_41" d="M189.571 238.26l.281-5.144 5.295 1.922s-1.626 4.871-3.217 4.81z" class="cls-8" transform="translate(-134.261 -189.251)"/>
            <path id="Path_42" d="M193.649 227.2l3.3 2.576-1.594 2.725-5.295-1.922z" class="cls-8" transform="translate(-134.471 -186.716)"/>
            <path id="Path_43" d="M111.253 210.448a4.991 4.991 0 0 1 3.914-2.438c.274 0 .565.006.868.013 1.515.031 3.408.119 5.24.337a92.777 92.777 0 0 1 10.425 1.74c1.577.416 3.1.945 4.306 1.4 1.542.588 2.437 1.021 2.437 1.021s-2.571 27.166-3 39.033h-26.099c-.9-5.1-.315-14.43-.387-23.637-.044-5.546.407-12.434 2.296-17.469z" class="cls-12" transform="translate(-99.648 -178.488)"/>
            <path id="Path_44" d="M109.337 229.539c-.238 2.616-.306 5.234-.287 7.606q.009 1.669 0 3.338a11.441 11.441 0 0 0 2.512-6.475 7.359 7.359 0 0 0-2.225-4.469z" class="cls-13" transform="translate(-99.739 -187.718)"/>
            <path id="Path_45" d="M109.453 221.25c-.524.634-1.117 1.39-1.673 2.1s-1.111 1.455-1.644 2.2c-1.076 1.478-2.1 2.986-3.048 4.509a43.448 43.448 0 0 0-2.514 4.629 17.42 17.42 0 0 0-1.434 4.512l-.019.131-.01.066c0 .011-.01.074-.005.018a1.672 1.672 0 0 0-.043-.4 1.584 1.584 0 0 0-.344-.7c-.127-.138-.174-.156-.185-.151a.519.519 0 0 0 .147.106 7.282 7.282 0 0 0 1.953.6 38.924 38.924 0 0 0 5.291.574c1.844.105 3.72.137 5.605.151s3.8-.005 5.667-.023l.446 3.46a78.571 78.571 0 0 1-11.674 1.734 37.588 37.588 0 0 1-6.189-.036 13.239 13.239 0 0 1-3.6-.819 6.747 6.747 0 0 1-1.116-.575 5.428 5.428 0 0 1-1.253-1.106 4.688 4.688 0 0 1-.956-1.983 4.762 4.762 0 0 1-.1-1.117l.007-.162.007-.113.015-.227a21.91 21.91 0 0 1 1.576-6.544q.589-1.484 1.272-2.884t1.456-2.72a59.908 59.908 0 0 1 3.291-5.091q.882-1.22 1.808-2.405c.624-.8 1.233-1.544 1.959-2.365z" class="cls-8" transform="translate(-92.753 -182.179)"/>
            <path id="Path_46" d="M110.711 208.013c3.962.146 7.18 3.138 4.662 9.022-1.651 3.857-7.689 10.291-7.689 10.291l-8.18-7.979c2.989-5.888 7.09-11.486 11.207-11.334z" class="cls-12" transform="translate(-95.647 -178.488)"/>
            <path id="Path_47" d="M131.2 187.235l2.595 3 3.532 4.094a13.532 13.532 0 0 0-.538 1.614c-.592 2.187-.357 4.308 2.787 5.631 0 0 2.714 3.548-3.74 2.56s-7.429-4.361-7.429-4.361c2.861-2.004 3.025-8.773 2.793-12.538z" class="cls-8" transform="translate(-108.04 -169.581)"/>
            <path id="Path_48" d="M141.217 196.587a13.552 13.552 0 0 0-.538 1.613c-1.478-.563-3.25-2.536-3.2-4.135a7.239 7.239 0 0 1 .208-1.572z" class="cls-10" transform="translate(-111.927 -171.836)"/>
            <path id="Path_49" fill="#614596" d="M152.922 179.633c.568 2.447-.674 4.826-2.772 5.313s-4.261-1.1-4.828-3.55.673-4.826 2.772-5.313 4.26 1.102 4.828 3.55z" transform="translate(-115.231 -164.762)"/>
            <path id="Path_51" d="M132.648 172.486c.241 4.992.13 7.917 2.607 10.592a6.5 6.5 0 0 0 11.139-2.878c1.124-4.422.541-11.843-4.3-14.055a6.574 6.574 0 0 0-9.446 6.341z" class="cls-8" transform="translate(-109.853 -160.258)"/>
            <path id="Path_52" d="M127.6 172.036c-.925-2.385 6.178-.272 3.211-6.794 2.967 1.494 6.653 1.257 7.711-.1 2.1-2.7 1.49 4.59 4.314 1.325 1.087-1.257-1.061-2.14-.775-5.876.231-3.013-4.211-5.978-7.34-3.057s-4.861 2-6.932 1.631a2.4 2.4 0 0 0-2.089 3.952c-4.484.17-6.234 1.177-3.551 3.113s.608 2.72 1.121 4.918c.759 3.273 6.619 6.798 4.33.888z" class="cls-9" transform="translate(-104.809 -156.333)"/>
            <path id="Path_53" d="M129.128 182.983a5.255 5.255 0 0 0 2.8 2.458c1.561.552 2.3-.846 1.827-2.4-.424-1.4-1.746-3.375-3.3-3.255-1.521.114-2.072 1.784-1.327 3.197z" class="cls-8" transform="translate(-108.206 -166.385)"/>
            <path id="Path_54" d="M131.447 179.633c.568 2.447-.673 4.826-2.772 5.313s-4.261-1.1-4.828-3.55.674-4.826 2.772-5.313 4.26 1.102 4.828 3.55z" class="cls-16" transform="translate(-106.024 -164.762)"/>
            <path id="Path_55" d="M128.894 170.409a.613.613 0 0 1-.578-.41c-.055-.159-1.333-3.92.459-6.6 1.012-1.512 2.767-2.349 5.217-2.486a.621.621 0 0 1 .644.576.611.611 0 0 1-.576.644c-2.046.115-3.481.77-4.269 1.946-1.457 2.177-.332 5.483-.32 5.516a.611.611 0 0 1-.578.812z" class="cls-16" transform="translate(-107.788 -158.296)"/>
            <path id="Path_56" d="M129.588 181.861a2.31 2.31 0 1 1-2.826-2.077 2.495 2.495 0 0 1 2.826 2.077z" class="cls-17" transform="translate(-106.604 -166.365)"/>
            <path id="Path_57" d="M146.965 180.392c-.005.405.205.744.47.756s.483-.306.488-.711-.205-.744-.47-.757-.483.307-.488.712z" class="cls-9" transform="translate(-115.995 -166.343)"/>
            <path id="Path_58" d="M154.97 180.773c-.005.405.205.744.47.756s.483-.306.488-.711-.205-.744-.47-.756-.483.305-.488.711z" class="cls-9" transform="translate(-119.427 -166.506)"/>
            <path id="Path_59" fill="#ed847e" d="M152.337 181.184a12.909 12.909 0 0 0 1.4 3.131 1.962 1.962 0 0 1-1.662.12z" transform="translate(-118.186 -166.987)"/>
            <path id="Path_60" d="M149.6 189.3a3.488 3.488 0 0 1-2.5-1.114.119.119 0 1 1 .183-.151 3.336 3.336 0 0 0 2.765 1.013.119.119 0 0 1 .021.237 3.912 3.912 0 0 1-.469.015z" class="cls-9" transform="translate(-116.041 -169.907)"/>
            <path id="Path_61" d="M143.937 177.575a.243.243 0 0 1-.1-.06.238.238 0 0 1 0-.336 2.285 2.285 0 0 1 2.038-.68.235.235 0 0 1 .179.285.238.238 0 0 1-.284.179 1.81 1.81 0 0 0-1.594.551.24.24 0 0 1-.239.061z" class="cls-9" transform="translate(-114.622 -164.964)"/>
            <path id="Path_62" d="M156.1 177.525a.238.238 0 0 1-.194-.109 2 2 0 0 0-1.481-.946.238.238 0 0 1 .013-.475 2.457 2.457 0 0 1 1.866 1.163.238.238 0 0 1-.07.329.233.233 0 0 1-.134.038z" class="cls-9" transform="translate(-119.092 -164.762)"/>
            <path id="Path_63" d="M133.114 255.987l4.111-1.226-.687 4.977s-4.068 1.144-4.483-1z" class="cls-8" transform="translate(-109.602 -198.531)"/>
            <path id="Path_64" d="M145.355 256.421l-1.261 3.473-4.192-.156.688-4.977z" class="cls-8" transform="translate(-112.967 -198.531)"/>
        </g>
        <g id="Table" transform="translate(44.923 69.725)">
            <g id="Group_54">
                <g id="Group_48" transform="translate(0 29.662)">
                    <g id="Group_46" transform="translate(67.064 1.727)">
                        <path id="Path_65" d="M255.538 412.62h2.992a2.461 2.461 0 0 1 1.536.577l1.774 1.41c.153.122.1.49-.073.49H252.3c-.171 0-.226-.368-.073-.49L254 413.2a2.462 2.462 0 0 1 1.538-.58z" class="cls-9" transform="translate(-252.138 -332.328)"/>
                        <path id="Rectangle_46" d="M0 0H81.141V2.623H0z" class="cls-9" transform="rotate(90 3.104 3.104)"/>
                        <path id="Rectangle_47" d="M0 0H1.91V2.623H0z" class="cls-13" transform="rotate(90 3.104 3.104)"/>
                    </g>
                    <g id="Group_47">
                        <path id="Rectangle_48" d="M0 0H143.921V2.356H0z" class="cls-9" transform="rotate(180 71.96 1.178)"/>
                        <path id="Rectangle_49" d="M0 0H50.591V2.356H0z" opacity="0.8" transform="rotate(180 71.96 1.178)"/>
                    </g>
                </g>
                <g id="Group_49" transform="translate(26.496 6.683)">
                    <path id="Path_66" fill="#acacac" d="M192.707 240.4a3.117 3.117 0 0 1-4.4 0l-6.278-6.278a3.117 3.117 0 0 1 0-4.4 3.117 3.117 0 0 1 4.4 0l6.278 6.278a3.117 3.117 0 0 1 0 4.4z" transform="translate(-181.127 -228.825)"/>
                    <path id="Path_67" d="M200.275 253.285v-.612a1.976 1.976 0 0 0 1.974-1.974v-3.019h.612v3.02a2.589 2.589 0 0 1-2.586 2.585z" class="cls-21" transform="translate(-189.336 -236.908)"/>
                    <path id="Path_68" d="M188.227 241.261l3.811 3.811a3.773 3.773 0 0 0 5.336-5.336l-3.811-3.811z" class="cls-9" transform="translate(-184.171 -231.869)"/>
                    <path id="Path_69" fill="#909090" d="M195.741 246.495a1.327 1.327 0 1 1-1.3-1.58 1.461 1.461 0 0 1 1.3 1.58z" opacity="0.6" transform="translate(-186.275 -235.723)"/>
                    <path id="Path_70" fill="#c6c6c6" d="M195.176 246.495a1.327 1.327 0 1 1-1.3-1.58 1.461 1.461 0 0 1 1.3 1.58z" transform="translate(-186.033 -235.723)"/>
                    <path id="Path_71" fill="#717171" d="M198.025 259.144h-.611v-5.859h-.514a2.589 2.589 0 0 1-2.586-2.586v-3.019h.612v3.02a1.976 1.976 0 0 0 1.974 1.974h1.124z" transform="translate(-186.781 -236.908)"/>
                    <path id="Path_72" d="M200.964 268.272h-5.52l.867-1.036h3.789z" class="cls-21" transform="translate(-187.265 -245.292)"/>
                </g>
                <g id="Group_50" transform="translate(102.644 6.683)">
                    <path id="Path_73" fill="#ffc238" d="M319.057 240.4a3.117 3.117 0 0 0 4.4 0l6.278-6.278a3.118 3.118 0 0 0 0-4.4 3.118 3.118 0 0 0-4.4 0L319.057 236c-1.066 1.066-.31 4.034-.31 4.034a4.4 4.4 0 0 0 .31.366z" transform="translate(-316.333 -228.825)"/>
                    <path id="Path_74" fill="#909090" d="M323.767 253.285v-.612a1.977 1.977 0 0 0 1.974-1.974v-3.019h.611v3.02a2.589 2.589 0 0 1-2.585 2.585z" transform="translate(-318.427 -236.908)"/>
                    <path id="Path_75" d="M324.667 241.261l-3.811 3.811a3.773 3.773 0 1 1-5.336-5.336l3.811-3.811z" class="cls-9" transform="translate(-314.419 -231.869)"/>
                    <path id="Path_76" fill="#6c6e71" d="M319.233 246.495a1.328 1.328 0 1 1-1.3-1.58 1.461 1.461 0 0 1 1.3 1.58z" opacity="0.6" transform="translate(-315.365 -235.723)"/>
                    <path id="Path_77" fill="#c7c7c7" d="M318.668 246.495a1.328 1.328 0 1 1-1.3-1.58 1.461 1.461 0 0 1 1.3 1.58z" transform="translate(-315.123 -235.723)"/>
                    <path id="Path_78" fill="#6c6c6c" d="M321.518 259.144h-.612v-5.859h-.513a2.589 2.589 0 0 1-2.585-2.586v-3.019h.611v3.02a1.976 1.976 0 0 0 1.974 1.974h1.125z" transform="translate(-315.872 -236.908)"/>
                    <path id="Path_79" fill="#888" d="M324.456 268.272h-5.52l.867-1.036h3.786z" transform="translate(-316.356 -245.292)"/>
                </g>
                <g id="Group_53" transform="translate(20.676)">
                    <g id="Group_51" transform="translate(0 28.389)">
                        <path id="Path_80" fill="#747474" d="M227.736 266.82h-55.523a1.278 1.278 0 0 0-1.274 1.273h58.071a1.277 1.277 0 0 0-1.274-1.273z" transform="translate(-170.939 -266.82)"/>
                    </g>
                    <g id="Group_52" transform="translate(16.28)">
                        <path id="Path_83" fill="#b1b1b1" d="M245.138 217.127h-38.866a2.811 2.811 0 0 0-2.651 2.258l-4.151 23.873a1.852 1.852 0 0 0 1.865 2.258H240.2a2.812 2.812 0 0 0 2.651-2.258L247 219.385a1.852 1.852 0 0 0-1.862-2.258z" transform="translate(-199.437 -217.127)"/>
                    </g>
                    <path id="Path_85" d="M200.624 245.092l4.485-25.812a.536.536 0 0 0-.916-.462 2.668 2.668 0 0 0-.574 1.219l-4.146 23.872a1.973 1.973 0 0 0 .195 1.312.512.512 0 0 0 .956-.129z" opacity="0.1" transform="translate(-183.157 -217.777)"/>
                    <path id="Path_86" fill="#7e7e7e" d="M243.936 237.934c-.311 2.972-2.371 5.383-4.6 5.382s-3.783-2.41-3.472-5.383 2.371-5.382 4.6-5.382 3.784 2.41 3.472 5.383z" opacity="0.9" transform="translate(-198.757 -223.74)"/>
                </g>
            </g>
        </g>
        <g id="Character_2" transform="translate(135.28 42.116)">
            <g id="Group_69">
                <g id="Group_61">
                    <g id="Group_60">
                        <path id="Path_87" d="M407.508 227.329c.584.766 1.074 1.442 1.57 2.18s.971 1.456 1.44 2.194c.943 1.474 1.805 3 2.631 4.562a42.2 42.2 0 0 1 3.88 10.146 24.931 24.931 0 0 1 .437 2.887 10.264 10.264 0 0 1-.326 3.462 20.119 20.119 0 0 1-2.321 5.3 40.2 40.2 0 0 1-6.667 8.214l-2.619-2.205 1.24-2.079c.407-.706.795-1.419 1.183-2.124.763-1.419 1.477-2.844 2.071-4.261a17.2 17.2 0 0 0 1.237-4.073 4.7 4.7 0 0 0 0-1.532 18.966 18.966 0 0 0-.464-2.054 41.457 41.457 0 0 0-3.717-8.41c-.764-1.388-1.6-2.748-2.45-4.108q-.641-1.015-1.313-2.01c-.444-.648-.913-1.347-1.328-1.925z" class="cls-35" transform="translate(-339.676 -193.893)"/>
                        <path id="Path_88" d="M406.738 290.168l-3.374 1.21 4.005 4.693a5.623 5.623 0 0 0 2.259-3.93z" class="cls-35" transform="translate(-340.265 -220.833)"/>
                        <path id="Path_89" d="M397.362 294.816l3.492 3.723 3.942-1.561-4.005-4.693z" class="cls-35" transform="translate(-337.692 -221.741)"/>
                        <path id="Path_90" d="M368.97 191.622c.058.385-.1.728-.35.767s-.5-.242-.562-.628.1-.728.35-.767.503.243.562.628z" class="cls-9" transform="translate(-325.123 -178.314)"/>
                        <path id="Path_91" fill="#ed893e" d="M368.55 193.362a13.93 13.93 0 0 1-1.338 3.574 2.245 2.245 0 0 0 1.888.064z" transform="translate(-324.766 -179.33)"/>
                        <path id="Path_92" d="M369.881 187.469a.231.231 0 0 1-.138-.022 1.812 1.812 0 0 0-1.653-.05.229.229 0 0 1-.226-.4 2.27 2.27 0 0 1 2.087.041.228.228 0 0 1-.07.43z" class="cls-9" transform="translate(-324.996 -176.503)"/>
                        <path id="Path_93" d="M383.8 197.734c-.693 3.533-1.384 10.008 1.088 12.365 0 0-.966 3.584-7.531 3.584-7.219 0-3.45-3.584-3.45-3.584 3.94-.941 3.838-3.864 3.152-6.61z" class="cls-35" transform="translate(-327.215 -181.205)"/>
                        <path id="Path_94" fill="#2d1789" d="M385.937 219.041c.518-1.347 1.087-2.888-.091-3.371-1.3-.531-8.394-1.073-10.841-.076s-1.753 3.729-1.753 3.729z" transform="translate(-327.316 -188.623)"/>
                        <path id="Path_95" d="M344.327 235.3c-.826 1.957-1.717 3.762-2.643 5.613-.94 1.832-1.926 3.645-3.009 5.428a53.936 53.936 0 0 1-3.566 5.274 27.181 27.181 0 0 1-2.2 2.558 14.756 14.756 0 0 1-3.016 2.428l-1.147.679-1.113-.3a9.606 9.606 0 0 1-3.068-1.484 13.673 13.673 0 0 1-2.193-1.965 17.635 17.635 0 0 1-1.673-2.181 16.589 16.589 0 0 1-1.3-2.394l2.8-1.965c.562.428 1.184.943 1.78 1.378s1.2.872 1.8 1.235a11.712 11.712 0 0 0 1.732.911 4.439 4.439 0 0 0 1.419.362l-2.26.38a9.311 9.311 0 0 0 1.528-1.469 25.162 25.162 0 0 0 1.6-2.088c1.039-1.5 2.017-3.136 2.957-4.8s1.837-3.393 2.71-5.131c.88-1.722 1.724-3.527 2.523-5.228z" class="cls-35" transform="translate(-304.268 -196.124)"/>
                        <path id="Path_96" d="M404.263 221.179c4.527 1.038 9.719 13.38 9.719 13.38l-9.092 6.231a76.412 76.412 0 0 1-6-10.209c-2.69-5.648.744-10.463 5.373-9.402z" class="cls-38" transform="translate(-337.94 -191.193)"/>
                        <path id="Path_97" d="M403.329 235.066l4.3 11.446-.427.3s-1.861-2.61-3.872-6.134z" class="cls-10" transform="translate(-340.25 -197.21)"/>
                        <path id="Path_98" d="M360.178 220.6s-4.572 6.375.282 42.315h25.833c.178-3.966-2.882-23.879.943-42.564a67.406 67.406 0 0 0-8.648-1.092 94.837 94.837 0 0 0-10.981 0 48.462 48.462 0 0 0-7.429 1.341z" class="cls-38" transform="translate(-320.914 -190.363)"/>
                        <path id="Path_99" d="M362.73 239.914a22.925 22.925 0 0 1-5.1 11.058c-.106-2.314-.145-4.392-.138-6.252z" class="cls-10" transform="translate(-320.598 -199.288)"/>
                        <path id="Path_100" d="M357.483 225.577c.637 4.574-8.374 16.256-8.374 16.256l-9.055-6.233s2.51-6.438 6.739-10.657c4.829-4.816 9.997-4.343 10.69.634z" class="cls-38" transform="translate(-313.123 -191.426)"/>
                        <path id="Path_101" d="M318 257.815l-3.577-2.886 3.225-3.71a5.5 5.5 0 0 1 2.909 4.859z" class="cls-35" transform="translate(-302.133 -204.135)"/>
                        <path id="Path_102" d="M311.382 251.427l2.187-3.748 2.773 2.022-3.225 3.71z" class="cls-35" transform="translate(-300.831 -202.617)"/>
                        <path id="Path_103" d="M381.929 182.7c.431 4.774.925 7.547-1.093 10.338-3.036 4.2-9.2 2.923-11.054-1.626-1.664-4.094-2.088-11.214 2.254-13.8a6.538 6.538 0 0 1 9.893 5.088z" class="cls-35" transform="translate(-325.362 -172.171)"/>
                        <ellipse id="Ellipse_2" cx="4.549" cy="3.902" class="cls-16" rx="4.549" ry="3.902" transform="rotate(-71.382 37.683 -27.727)"/>
                        <path id="Path_104" d="M370.339 182.035a4.906 4.906 0 0 1-1.087-4.926c-1.733-.306-7.1-.747-2.412-6.012s6.658.17 6.658.17 7.128-2.71 7.98 2.025c4.487-1.176 4.487 9.9-2.239 15.2-5.503-3.842-9.919-4.283-8.9-6.457z" class="cls-9" transform="translate(-323.802 -168.8)"/>
                        <path id="Path_105" d="M376.821 189.322a5.419 5.419 0 0 1-1.2 3.265c-1 1.209-2.128.539-2.382-.863-.228-1.263.015-3.413 1.271-4.113 1.234-.689 2.328.276 2.311 1.711z" class="cls-35" transform="translate(-327.316 -176.767)"/>
                        <g id="Group_55" transform="translate(43.48 1.293)">
                            <path id="Path_106" d="M376.8 189.368c.372 2.485-1.054 4.758-3.185 5.077s-4.16-1.436-4.533-3.921 1.053-4.758 3.185-5.078 4.159 1.437 4.533 3.922z" class="cls-16" transform="translate(-369.022 -177.213)"/>
                            <path id="Path_107" d="M374.916 180.129a.612.612 0 0 1-.591-.457c-.043-.163-1.019-4.013.98-6.541 1.129-1.426 2.952-2.119 5.4-2.065a.612.612 0 0 1 .6.626.6.6 0 0 1-.625.6c-2.042-.048-3.532.491-4.41 1.6-1.625 2.055-.765 5.439-.756 5.473a.612.612 0 0 1-.437.747.635.635 0 0 1-.161.017z" class="cls-16" transform="translate(-371.177 -171.063)"/>
                            <path id="Path_108" d="M374.877 191.356a2.31 2.31 0 1 1-2.652-2.294 2.494 2.494 0 0 1 2.652 2.294z" class="cls-17" transform="translate(-369.582 -178.77)"/>
                        </g>
                        <g id="Group_56" transform="translate(0 124.849)">
                            <path id="Path_109" d="M308.758 406.481c-.62 0-1.218-.086-1.418-.364a.434.434 0 0 1 .009-.5.572.572 0 0 1 .363-.267c.8-.219 2.492.743 2.563.784a.114.114 0 0 1-.035.211 8.5 8.5 0 0 1-1.482.136zm-.765-.937a.835.835 0 0 0-.221.026.341.341 0 0 0-.224.16c-.081.142-.052.212-.022.253.225.311 1.446.319 2.344.192a5.179 5.179 0 0 0-1.877-.63z" class="cls-9" transform="translate(-299.066 -395.048)"/>
                            <path id="Path_110" d="M311.157 405.48a.11.11 0 0 1-.047-.01c-.583-.262-1.738-1.306-1.649-1.852.021-.129.111-.288.426-.32a.846.846 0 0 1 .634.2 3.265 3.265 0 0 1 .75 1.86.113.113 0 0 1-.047.1.115.115 0 0 1-.067.022zm-1.179-1.958a.568.568 0 0 0-.069 0c-.206.021-.219.1-.223.129-.053.327.732 1.148 1.327 1.506a2.689 2.689 0 0 0-.638-1.489.609.609 0 0 0-.397-.146z" class="cls-9" transform="translate(-300.005 -394.181)"/>
                            <path id="Path_111" d="M317.86 398.527h-4.83l-1.411-11.185h4.83z" class="cls-35" transform="translate(-300.932 -387.342)"/>
                            <path id="Path_112" d="M304.577 405.942h5.275a.422.422 0 0 1 .411.33l.954 4.293a.7.7 0 0 1-.7.859c-1.9-.033-4.652-.144-7.043-.144-2.8 0-5.211.153-8.49.153-1.983 0-2.533-2-1.7-2.186 3.778-.827 6.863-.915 10.128-2.928a2.235 2.235 0 0 1 1.165-.377z" class="cls-9" transform="translate(-292.912 -395.316)"/>
                            <path id="Path_113" d="M311.621 387.347l.727 5.765h4.832l-.726-5.765z" class="cls-10" transform="translate(-300.933 -387.344)"/>
                        </g>
                        <path id="Path_114" d="M342.83 406.492a1.555 1.555 0 0 1-1.161-.319.465.465 0 0 1 0-.543.532.532 0 0 1 .359-.267c.7-.166 2.039.748 2.095.787a.115.115 0 0 1 .048.115.116.116 0 0 1-.086.09 6.105 6.105 0 0 1-1.255.137zm-.6-.921a.616.616 0 0 0-.141.015.307.307 0 0 0-.211.154c-.1.188-.043.267-.023.294.207.27 1.192.275 1.914.154a3.761 3.761 0 0 0-1.543-.617z" class="cls-9" transform="translate(-313.78 -270.211)"/>
                        <path id="Path_115" d="M344.852 405.479a.11.11 0 0 1-.055-.014c-.5-.271-1.466-1.329-1.364-1.868a.373.373 0 0 1 .364-.3.629.629 0 0 1 .487.147c.561.458.676 1.852.681 1.911a.114.114 0 0 1-.051.1.112.112 0 0 1-.062.024zm-.975-1.957a.4.4 0 0 0-.051 0c-.149.018-.162.087-.167.115-.06.318.555 1.118 1.052 1.5a2.753 2.753 0 0 0-.571-1.513.407.407 0 0 0-.263-.102z" class="cls-9" transform="translate(-314.568 -269.332)"/>
                        <path id="Path_116" d="M350.161 398.527h-4.83l-2.431-11.185h4.83z" class="cls-35" transform="translate(-314.345 -262.493)"/>
                        <path id="Path_117" d="M341.758 405.942h5.426a.422.422 0 0 1 .411.33l.954 4.293a.71.71 0 0 1-.707.859c-1.894-.033-2.815-.143-5.2-.143-1.468 0-3.352.153-5.379.153-1.983 0-2.293-2-1.462-2.186 3.721-.814 3.983-1.937 5.174-3.008a1.172 1.172 0 0 1 .783-.298z" class="cls-9" transform="translate(-311.114 -270.467)"/>
                        <g id="Group_57" opacity="0.2" transform="translate(28.559 124.852)">
                            <path id="Path_118" d="M347.735 387.347H342.9l1.254 5.765h4.832z" transform="translate(-342.903 -387.347)"/>
                        </g>
                        <g id="Group_58" transform="translate(3.185 72.55)">
                            <path id="Path_119" d="M334.849 295.8s-36.754 3.26-36.358 21.718a102.2 102.2 0 0 0 6.59 33.9h7.176s-.366-11.706-.125-30.608c.073-5.663 11.515-7.533 22.69-8.194 9.654-.571 18.689-6.073 22.439-14.986l.768-1.825z" class="cls-40" transform="translate(-298.487 -295.796)"/>
                        </g>
                        <path id="Path_121" d="M306.959 389.78c-.038 0 .462 3.4.462 3.4h9.953l.269-3.032z" class="cls-9" transform="translate(-298.934 -263.539)"/>
                        <g id="Group_59" transform="translate(19.725 72.55)">
                            <path id="Path_122" d="M355 295.8s-26.8 8.132-27.458 18.9c-1.218 19.822 8.505 36.718 8.505 36.718h7.253s-2.751-8.376-3.738-26.334c-1.24-22.565 41.425.528 33.537-29.279z" class="cls-40" transform="translate(-327.44 -295.796)"/>
                        </g>
                        <path id="Path_124" d="M338.683 389.78c-.038 0 .914 3.4.914 3.4h9.953l-.182-3.032z" class="cls-9" transform="translate(-312.535 -263.539)"/>
                    </g>
                </g>
                <g id="Group_68" transform="translate(17.125 87.409)">
                    <g id="Group_62">
                        <path id="Path_125" d="M371.947 321.8a1.831 1.831 0 0 1 1.829 1.914l-.076 1.586a3.046 3.046 0 0 1-2.9 2.525h-.532l-.526 1.755a2.772 2.772 0 0 1-2.648 1.969h-44.206a5.681 5.681 0 0 1 1.938-4.28c-.006-.043-.025-.085-.03-.128l-.245-2.84a2.3 2.3 0 0 1 2.29-2.5z" class="cls-7" transform="translate(-322.888 -321.805)"/>
                    </g>
                    <g id="Group_67" transform="translate(.116 9.741)">
                        <g id="Group_63" transform="translate(28.174)">
                            <path id="Path_127" d="M375.067 383.825h1.942l-2.658-44.968h-1.942z" class="cls-7" transform="translate(-372.409 -338.856)"/>
                        </g>
                        <g id="Group_64">
                            <path id="Path_129" d="M325.034 383.825h-1.942l2.658-44.968h1.942z" class="cls-7" transform="translate(-323.092 -338.856)"/>
                        </g>
                        <g id="Group_65" transform="translate(40.328)">
                            <path id="Path_131" d="M396.343 383.825h1.942l-2.658-44.968h-1.942z" class="cls-7" transform="translate(-393.685 -338.856)"/>
                        </g>
                        <g id="Group_66" transform="translate(12.154)">
                            <path id="Path_133" d="M346.31 383.825h-1.942l2.658-44.968h1.942z" class="cls-7" transform="translate(-344.367 -338.856)"/>
                        </g>
                    </g>
                </g>
            </g>
        </g>
    </g>
</svg>
