<svg xmlns="http://www.w3.org/2000/svg" xmlns:xlink="http://www.w3.org/1999/xlink" width="197.674" height="189.942" viewBox="0 0 197.674 189.942">
    <defs>
        <linearGradient id="linear-gradient" x1=".5" x2=".5" y1=".004" y2=".836" gradientUnits="objectBoundingBox">
            <stop offset="0" stop-color="#f5f5f5"/>
            <stop offset="1" stop-color="#fff"/>
        </linearGradient>
        <linearGradient id="linear-gradient-2" x1=".5" x2=".5" y1=".994" y2=".279" gradientUnits="objectBoundingBox">
            <stop offset="0" stop-color="#fff"/>
            <stop offset="1" stop-color="#e6e6e6"/>
        </linearGradient>
        <linearGradient id="linear-gradient-4" x1=".5" x2=".5" y1="-.004" y2=".948" xlink:href="#linear-gradient"/>
        <linearGradient id="linear-gradient-6" x1=".5" x2=".5" y1="0" y2=".848" xlink:href="#linear-gradient"/>
        <linearGradient id="linear-gradient-7" x1=".5" x2=".5" y1=".007" y2=".659" xlink:href="#linear-gradient"/>
        <linearGradient id="linear-gradient-8" x1=".5" x2=".5" y1=".708" y2=".018" xlink:href="#linear-gradient-2"/>
        <linearGradient id="linear-gradient-9" x1=".5" x2=".5" y1="0" y2=".463" xlink:href="#linear-gradient"/>
        <linearGradient id="linear-gradient-10" x1=".5" x2=".5" y1="0" y2=".463" xlink:href="#linear-gradient"/>
        <linearGradient id="linear-gradient-11" x1="-10.25" x2="-11.247" y1="7.053" y2="7.269" gradientUnits="objectBoundingBox">
            <stop offset="0" stop-color="#fc5653"/>
            <stop offset="1" stop-color="#fc0053"/>
        </linearGradient>
        <linearGradient id="linear-gradient-12" x1=".649" x2=".44" y1=".039" y2=".877" xlink:href="#linear-gradient-11"/>
        <linearGradient id="linear-gradient-13" x1="-2.059" x2="-3.477" y1=".483" y2="1.113" gradientUnits="objectBoundingBox">
            <stop offset="0" stop-color="#b0c9f8"/>
            <stop offset="1" stop-color="#71bbf2"/>
        </linearGradient>
        <linearGradient id="linear-gradient-14" x1="-4.04" x2="-5.12" y1=".257" y2="1.099" xlink:href="#linear-gradient-13"/>
        <linearGradient id="linear-gradient-15" x1="-5.605" x2="-6.296" y1=".265" y2=".687" gradientUnits="objectBoundingBox">
            <stop offset="0" stop-color="#f0eef7"/>
            <stop offset=".433" stop-color="#e6eff1"/>
            <stop offset="1" stop-color="#d4e4eb"/>
        </linearGradient>
        <linearGradient id="linear-gradient-16" x1="-4.765" x2="-4.527" y1=".045" y2=".794" xlink:href="#linear-gradient-15"/>
        <linearGradient id="linear-gradient-17" x1=".532" x2=".196" y1=".27" y2="1.795" xlink:href="#linear-gradient-11"/>
        <linearGradient id="linear-gradient-18" x1=".454" x2=".065" y1=".497" y2="1.296" xlink:href="#linear-gradient-13"/>
        <linearGradient id="linear-gradient-19" x1=".562" x2=".373" y1="-.111" y2="1.244" xlink:href="#linear-gradient-11"/>
        <linearGradient id="linear-gradient-20" x1="-.906" x2="-1.162" y1=".48" y2="1.176" xlink:href="#linear-gradient-13"/>
        <linearGradient id="linear-gradient-21" x1="3.388" x2="2.391" y1="3.959" y2="4.175" xlink:href="#linear-gradient-11"/>
        <linearGradient id="linear-gradient-22" x1=".507" x2=".49" y1=".049" y2="1.031" gradientUnits="objectBoundingBox">
            <stop offset="0" stop-color="#f6f8ff"/>
            <stop offset="1" stop-color="#d2ecff"/>
        </linearGradient>
        <linearGradient id="linear-gradient-23" x1=".512" x2=".5" y1=".047" y2=".992" xlink:href="#linear-gradient-22"/>
        <linearGradient id="linear-gradient-24" x1=".572" x2=".387" y1=".064" y2="1.125" xlink:href="#linear-gradient-22"/>
        <linearGradient id="linear-gradient-25" x1=".546" x2=".34" y1=".293" y2="1.06" xlink:href="#linear-gradient-22"/>
        <linearGradient id="linear-gradient-26" x1=".508" x2=".497" y1=".048" y2="1.03" xlink:href="#linear-gradient-22"/>
        <linearGradient id="linear-gradient-27" x1=".58" x2=".589" y1="1" y2="-8.438" gradientUnits="objectBoundingBox">
            <stop offset="0" stop-color="#fff"/>
            <stop offset="1" stop-color="gray"/>
        </linearGradient>
        <style>
            .cls-3{fill:url(#linear-gradient)}.cls-5{fill:#fff}.cls-12{fill:#100142}.cls-13{fill:#090d41}.cls-14{fill:#fdcea7}.cls-15{fill:#edb281}.cls-16{fill:#dd9c66}.cls-32,.cls-34{mix-blend-mode:multiply;isolation:isolate}.cls-32{fill:#d9e1f3}.cls-34,.cls-39{fill:#cdd8ef}
        </style>
    </defs>
    <g id="Group_1314" transform="translate(0 -44)">
        <g id="buildings" opacity="0.434" transform="translate(1.189 44)">
            <path id="Shape" fill="#f5f5f5" d="M1.454 93.7h9.409a1.459 1.459 0 0 0 1.454-1.457V1.457A1.459 1.459 0 0 0 10.863 0H1.454A1.459 1.459 0 0 0 0 1.457V92.25a1.466 1.466 0 0 0 1.454 1.45z" transform="translate(63.88 10.326)"/>
            <path id="Shape-2" d="M74.114 53.349H2.736A2.748 2.748 0 0 1 0 50.607V2.742A2.748 2.748 0 0 1 2.736 0h71.385a2.748 2.748 0 0 1 2.736 2.742v47.865a2.749 2.749 0 0 1-2.743 2.742z" class="cls-3" transform="translate(12.316 50.677)"/>
            <path id="Shape-3" fill="url(#linear-gradient-2)" d="M18.963 104.027H1.993a2 2 0 0 1-1.993-2V2a2 2 0 0 1 1.993-2h16.97a2 2 0 0 1 1.993 2v100.029a2 2 0 0 1-1.993 1.998z" transform="translate(44.923)"/>
            <path id="Shape-4" d="M1.168 80.7H.5a.5.5 0 0 1-.5-.5V.5A.5.5 0 0 1 .5 0h.673a.5.5 0 0 1 .5.5v79.7a.5.5 0 0 1-.505.5z" class="cls-5" transform="translate(49.246 5.993)"/>
            <path id="Shape-5" d="M1.168 80.7H.5a.5.5 0 0 1-.5-.5V.5A.5.5 0 0 1 .5 0h.673a.5.5 0 0 1 .5.5v79.7a.5.5 0 0 1-.505.5z" class="cls-5" transform="translate(54.567 5.993)"/>
            <path id="Shape-6" d="M74.121 53.349H2.736A2.748 2.748 0 0 1 0 50.607V2.742A2.748 2.748 0 0 1 2.736 0h71.385a2.748 2.748 0 0 1 2.736 2.742v47.865a2.748 2.748 0 0 1-2.736 2.742z" class="cls-3" transform="translate(86.843 50.677)"/>
            <path id="Shape-7" d="M1.168 80.7H.5a.5.5 0 0 1-.5-.5V.5A.5.5 0 0 1 .5 0h.673a.5.5 0 0 1 .5.5v79.7a.5.5 0 0 1-.505.5z" class="cls-5" transform="translate(59.893 5.993)"/>
            <path id="Shape-8" fill="url(#linear-gradient-4)" d="M1.3 75.077h9.713a1.3 1.3 0 0 0 1.3-1.3V1.3a1.3 1.3 0 0 0-1.3-1.3H1.3A1.3 1.3 0 0 0 0 1.3v72.479a1.3 1.3 0 0 0 1.3 1.298z" transform="translate(105.807 28.949)"/>
            <path id="Shape-9" d="M19.173 83.355H1.784A1.792 1.792 0 0 1 0 81.567V1.788A1.792 1.792 0 0 1 1.784 0h17.389a1.792 1.792 0 0 1 1.784 1.788v79.779a1.787 1.787 0 0 1-1.784 1.788z" class="cls-3" transform="translate(86.843 20.672)"/>
            <path id="Shape-10" fill="url(#linear-gradient-6)" d="M1.619 93.694h12.069a1.628 1.628 0 0 0 1.619-1.622V1.622A1.627 1.627 0 0 0 13.688 0H1.619A1.627 1.627 0 0 0 0 1.622v90.449a1.628 1.628 0 0 0 1.619 1.623z" transform="translate(131.423 10.333)"/>
            <path id="Shape-11" d="M.2 5.675h3.27a.2.2 0 0 0 .2-.2V.2a.2.2 0 0 0-.2-.2H.2a.2.2 0 0 0-.2.2v5.278a.2.2 0 0 0 .2.197z" class="cls-5" transform="translate(134.75 13.66)"/>
            <path id="Shape-12" fill="url(#linear-gradient-7)" d="M1.454 93.7h9.409a1.459 1.459 0 0 0 1.454-1.457V1.457A1.459 1.459 0 0 0 10.863 0H1.454A1.459 1.459 0 0 0 0 1.457V92.25a1.466 1.466 0 0 0 1.454 1.45z" transform="translate(63.88 10.326)"/>
            <path id="Shape-13" d="M1.168 80.7H.5a.5.5 0 0 1-.5-.5V.5A.5.5 0 0 1 .5 0h.673a.5.5 0 0 1 .5.5v79.7a.5.5 0 0 1-.505.5z" class="cls-5" transform="translate(49.246 5.993)"/>
            <path id="Shape-14" d="M1.168 80.7H.5a.5.5 0 0 1-.5-.5V.5A.5.5 0 0 1 .5 0h.673a.5.5 0 0 1 .5.5v79.7a.5.5 0 0 1-.505.5z" class="cls-5" transform="translate(54.567 5.993)"/>
            <path id="Shape-15" d="M1.168 80.7H.5a.5.5 0 0 1-.5-.5V.5A.5.5 0 0 1 .5 0h.673a.5.5 0 0 1 .5.5v79.7a.5.5 0 0 1-.505.5z" class="cls-5" transform="translate(59.893 5.993)"/>
            <path id="Shape-16" fill="url(#linear-gradient-8)" d="M18.963 104.027H1.993a2 2 0 0 1-1.993-2V2a2 2 0 0 1 1.993-2h16.97a2 2 0 0 1 1.993 2v100.029a2 2 0 0 1-1.993 1.998z" transform="translate(154.05)"/>
            <path id="Shape-17" fill="url(#linear-gradient-9)" d="M1.454 93.7h9.409a1.459 1.459 0 0 0 1.454-1.457V1.457A1.459 1.459 0 0 0 10.863 0H1.454A1.459 1.459 0 0 0 0 1.457V92.25a1.458 1.458 0 0 0 1.454 1.45z" transform="translate(173.013 10.326)"/>
            <path id="Shape-18" d="M1.168 80.7H.5a.5.5 0 0 1-.5-.5V.5A.5.5 0 0 1 .5 0h.673a.5.5 0 0 1 .5.5v79.7a.5.5 0 0 1-.505.5z" class="cls-5" transform="translate(158.373 5.993)"/>
            <path id="Shape-19" d="M1.168 80.7H.5a.5.5 0 0 1-.5-.5V.5A.5.5 0 0 1 .5 0h.673a.5.5 0 0 1 .5.5v79.7a.5.5 0 0 1-.505.5z" class="cls-5" transform="translate(163.7 5.993)"/>
            <path id="Shape-20" d="M1.168 80.7H.5a.5.5 0 0 1-.5-.5V.5A.5.5 0 0 1 .5 0h.673a.5.5 0 0 1 .5.5v79.7a.5.5 0 0 1-.505.5z" class="cls-5" transform="translate(169.02 5.993)"/>
            <path id="Shape-21" d="M.2 5.675h3.27a.2.2 0 0 0 .2-.2V.2a.2.2 0 0 0-.2-.2H.2a.2.2 0 0 0-.2.2v5.278a.2.2 0 0 0 .2.197z" class="cls-5" transform="translate(140.407 13.66)"/>
            <path id="Shape-22" d="M.2 5.675h3.27a.2.2 0 0 0 .2-.2V.2a.2.2 0 0 0-.2-.2H.2a.2.2 0 0 0-.2.2v5.278a.2.2 0 0 0 .2.197z" class="cls-5" transform="translate(134.75 20.659)"/>
            <path id="Shape-23" d="M.2 5.675h3.27a.2.2 0 0 0 .2-.2V.2a.2.2 0 0 0-.2-.2H.2a.2.2 0 0 0-.2.2v5.278a.2.2 0 0 0 .2.197z" class="cls-5" transform="translate(140.407 20.659)"/>
            <path id="Shape-24" d="M.2 5.675h3.27a.2.2 0 0 0 .2-.2V.2a.2.2 0 0 0-.2-.2H.2a.2.2 0 0 0-.2.2v5.278a.2.2 0 0 0 .2.197z" class="cls-5" transform="translate(134.75 27.995)"/>
            <path id="Shape-25" d="M.2 5.675h3.27a.2.2 0 0 0 .2-.2V.2a.2.2 0 0 0-.2-.2H.2a.2.2 0 0 0-.2.2v5.278a.2.2 0 0 0 .2.197z" class="cls-5" transform="translate(140.407 27.995)"/>
            <path id="Shape-26" d="M.2 5.675h3.27a.2.2 0 0 0 .2-.2V.2a.2.2 0 0 0-.2-.2H.2a.2.2 0 0 0-.2.2v5.278a.2.2 0 0 0 .2.197z" class="cls-5" transform="translate(134.75 35)"/>
            <path id="Shape-27" d="M.2 5.675h3.27a.2.2 0 0 0 .2-.2V.2a.2.2 0 0 0-.2-.2H.2a.2.2 0 0 0-.2.2v5.278a.2.2 0 0 0 .2.197z" class="cls-5" transform="translate(140.407 35)"/>
            <path id="Shape-28" d="M.2 5.675h3.27a.2.2 0 0 0 .2-.2V.2a.2.2 0 0 0-.2-.2H.2a.2.2 0 0 0-.2.2v5.278a.2.2 0 0 0 .2.197z" class="cls-5" transform="translate(134.75 41.668)"/>
            <path id="Shape-29" d="M.2 5.675h3.27a.2.2 0 0 0 .2-.2V.2a.2.2 0 0 0-.2-.2H.2a.2.2 0 0 0-.2.2v5.278a.2.2 0 0 0 .2.197z" class="cls-5" transform="translate(140.407 41.668)"/>
            <path id="Shape-30" d="M.2 5.675h3.27a.2.2 0 0 0 .2-.2V.2a.2.2 0 0 0-.2-.2H.2a.2.2 0 0 0-.2.2v5.278a.2.2 0 0 0 .2.197z" class="cls-5" transform="translate(134.75 48.673)"/>
            <path id="Shape-31" d="M.2 5.675h3.27a.2.2 0 0 0 .2-.2V.2a.2.2 0 0 0-.2-.2H.2a.2.2 0 0 0-.2.2v5.278a.2.2 0 0 0 .2.197z" class="cls-5" transform="translate(140.407 48.673)"/>
            <path id="Shape-32" d="M.2 5.675h3.27a.2.2 0 0 0 .2-.2V.2a.2.2 0 0 0-.2-.2H.2a.2.2 0 0 0-.2.2v5.278a.194.194 0 0 0 .2.197z" class="cls-5" transform="translate(134.75 56.003)"/>
            <path id="Shape-33" d="M.2 5.675h3.27a.2.2 0 0 0 .2-.2V.2a.2.2 0 0 0-.2-.2H.2a.2.2 0 0 0-.2.2v5.278a.194.194 0 0 0 .2.197z" class="cls-5" transform="translate(140.407 56.003)"/>
            <path id="Shape-34" d="M.2 5.675h3.27a.2.2 0 0 0 .2-.2V.2a.2.2 0 0 0-.2-.2H.2a.2.2 0 0 0-.2.2v5.278a.2.2 0 0 0 .2.197z" class="cls-5" transform="translate(134.75 63.008)"/>
            <path id="Shape-35" d="M.2 5.675h3.27a.2.2 0 0 0 .2-.2V.2a.2.2 0 0 0-.2-.2H.2a.2.2 0 0 0-.2.2v5.278a.2.2 0 0 0 .2.197z" class="cls-5" transform="translate(140.407 63.008)"/>
            <path id="Shape-36" fill="url(#linear-gradient-10)" d="M1.454 93.7h9.409a1.459 1.459 0 0 0 1.454-1.457V1.457A1.459 1.459 0 0 0 10.863 0H1.454A1.459 1.459 0 0 0 0 1.457V92.25a1.458 1.458 0 0 0 1.454 1.45z" transform="translate(0 10.326)"/>
        </g>
        <g id="Group_1252" transform="translate(.147 74.1)">
            <g id="Group_1251">
                <g id="Group_1241" transform="translate(93.709 11.591)">
                    <path id="Path_2581" d="M402.936 175.729s2.435 2.8.73 8.4-11.928 11.32-28.481 11.32-21.422-10.346-19.6-17.162c0 0 2.89 3.073 4.351-.031s-.639-12.324-1.369-16.614 1-15.61 3.926-18.258 8.621-3.3 19.444-7.12c13.554-4.781 13.511 12.689 13.237 21.27s.528 19.441 3.621 20.388c2.589.789 3.958-.428 4.141-2.193z" class="cls-12" transform="translate(-319.19 -132.84)"/>
                    <path id="Path_2582" d="M431.248 159.9c1.821 4.5 2.464 8.046.872 12.564-.963 2.732-2.493 4.14.226 6.3 1.288 1.023 3.4 2.186 5.145 1.643a8.518 8.518 0 0 0 3.627-2.314 5.735 5.735 0 0 1-.691-.156c-3.094-.947-3.9-11.806-3.621-20.388.268-8.386.307-25.249-12.342-21.548 8.851 8.321 2.245 12.687 6.784 23.899z" class="cls-13" transform="translate(-360.82 -132.858)"/>
                    <path id="Path_2583" d="M392.219 198.715s-1.187 20.63 5.66 24.738c0 0 3.1 14.423-9.676 14.058s-12.233-13.054-12.233-13.054 6.39-.547 3.286-20.174c0 0 9.677-6.483 12.963-5.568z" class="cls-14" transform="translate(-331.66 -170.826)"/>
                    <path id="Path_2584" d="M404.782 230.065a16.825 16.825 0 0 0-.534-12.537c-2.868-6.223-.371-12.183-.375-18.664a4.715 4.715 0 0 1 2.283-.146s-1.187 20.63 5.66 24.738c0 0 3.1 14.423-9.676 14.058a15.9 15.9 0 0 1-2.994-.383 15.643 15.643 0 0 0 5.636-7.066z" class="cls-15" transform="translate(-345.596 -170.83)"/>
                    <path id="Path_2585" d="M395.221 199.039c-.39 1.858-1.433 3.488-1.8 5.366a20.721 20.721 0 0 1-2.433 7.167 16.021 16.021 0 0 1-6.111 5.887 48.946 48.946 0 0 0-.664-12.928s6.881-4.598 11.008-5.492z" class="cls-16" transform="translate(-336.62 -171.074)"/>
                    <path id="Path_2586" d="M361.65 155.5s4.656-3.195 17.436 0c0 0-2.374 12.872 1.917 13.6 0 0 1.552-1.323 2.419-2.054s4.062-.137 3.788 2.556-3.331 4.29-4.29 4.382c0 0-6.634 11.852-15.093 9.235s-7.425-15.032-7.121-18.5.944-9.219.944-9.219z" class="cls-14" transform="translate(-322.361 -144.039)"/>
                    <g id="Group_1232" transform="translate(40.075 21.937)">
                        <path id="Path_2587" d="M365.369 184.637a1.091 1.091 0 1 0 1.245-.69 1.012 1.012 0 0 0-1.245.69z" class="cls-12" transform="translate(-365.352 -183.921)"/>
                    </g>
                    <g id="Group_1233" transform="translate(48.391 22.607)">
                        <path id="Path_2588" d="M386.227 186.382a1.188 1.188 0 1 0 1.356-.752 1.1 1.1 0 0 0-1.356.752z" class="cls-12" transform="translate(-386.209 -185.602)"/>
                    </g>
                    <g id="Group_1234" transform="translate(42.151 24.341)">
                        <path id="Path_2589" fill="#2b2127" d="M372 195.953l.1.024a.285.285 0 0 0 .351-.2.29.29 0 0 0-.23-.333c-.6-.139-.97-.331-1.047-.542-.122-.337.4-.878.786-1.273.151-.156.29-.3.393-.428a10.359 10.359 0 0 0 1.159-2.906.3.3 0 0 0-.579-.144 10.218 10.218 0 0 1-1.063 2.712c-.094.116-.222.249-.361.391-.5.519-1.129 1.165-.9 1.8.148.409.603.703 1.391.899z" transform="translate(-370.559 -189.951)"/>
                    </g>
                    <g id="Group_1235" transform="translate(42.841 32.204)">
                        <path id="Path_2590" fill="url(#linear-gradient-11)" d="M373.78 211.187a3.472 3.472 0 0 0 2.586-.99.3.3 0 0 0-.385-.456c-1.942 1.64-3.13.472-3.18.421a.3.3 0 0 0-.426.418 2.451 2.451 0 0 0 1.405.607z" transform="translate(-372.29 -209.67)"/>
                    </g>
                    <g id="Group_1236" transform="translate(47.546 19.973)">
                        <path id="Path_2591" d="M388.245 180.344a.3.3 0 0 0 .187-.55 5.832 5.832 0 0 0-4.113-.663.3.3 0 0 0 .138.581 5.282 5.282 0 0 1 3.658.588.3.3 0 0 0 .13.044z" class="cls-12" transform="translate(-384.09 -178.995)"/>
                    </g>
                    <g id="Group_1237" transform="translate(39.112 19.569)">
                        <path id="Path_2592" d="M363.207 179.071a.3.3 0 0 0 .2-.055 3.029 3.029 0 0 1 2.853-.118.3.3 0 0 0 .264-.535 3.6 3.6 0 0 0-3.468.17.3.3 0 0 0 .147.538z" class="cls-12" transform="translate(-362.937 -177.982)"/>
                    </g>
                    <path id="Path_2593" d="M377.493 131.924s-7.444-5.7-20.113-1.433c-11.137 3.754-11.015 18.07-.609 16.245s18.013-5.357 20.722-14.812z" class="cls-12" transform="translate(-315.443 -128.904)"/>
                    <path id="Path_2594" fill="url(#linear-gradient-12)" d="M346.665 328.846s6.748-22.274 4.926-33.046-2.307-39.74-2.307-39.74 4.216-1.864 7.6-3.725a21.4 21.4 0 0 1 4.073-1.8c1.746 2.383 7.272 9.8 8.514 9.96 1.479.187 7.644-11.994 7.644-11.994s19.639 7.486 24.142 7.973c0 0-5.112 23.074-5.112 38.775s7.668 25.925 8.581 33.594z" transform="translate(-314.042 -200.816)"/>
                    <path id="Path_2595" d="M358.5 346.88h-11.835s6.748-22.274 4.926-33.046c-1.383-8.174-1.995-26.815-2.21-35.336.837 3.4 2.883 6.53 3.859 10.75 1.016 4.4.159 8.779 1.539 13.119 1.049 3.3 4.069 5.51 5.579 8.539 4.193 8.41-5.4 15.578-3.183 24.522 1.032 4.156.887 7.905 1.325 11.452z" transform="translate(-314.042 -218.85)" style="mix-blend-mode:multiply;isolation:isolate" fill="url(#linear-gradient-13)" opacity="0.55"/>
                    <path id="Path_2596" d="M431.211 311.26c1.339-3.1.774-6.186-.243-9.254a17.132 17.132 0 0 1 3.027-16.292c4.966-6.008 11.5-11.277 17.338-16.216-.661 3.067-5.026 23.865-5.026 38.378 0 15.7 7.668 25.925 8.581 33.594h-22.577c.352-2.4-.376-5.173-1.311-8.007-1.388-4.206 1.737-6.122 1.737-9.946 0-4.517-3.607-7.437-1.526-12.257z" transform="translate(-364.205 -213.439)" style="mix-blend-mode:multiply;isolation:isolate" fill="url(#linear-gradient-14)" opacity="0.55"/>
                    <g id="Group_1238" transform="translate(57.154 66.213)">
                        <path id="Path_2597" d="M408.187 296.166c.012.659.26 1.189.554 1.183s.522-.544.509-1.2-.261-1.189-.554-1.183-.521.541-.509 1.2z" class="cls-12" transform="translate(-408.187 -294.963)"/>
                        <path id="Path_2598" d="M409.333 325.149c.012.66.26 1.189.554 1.184s.522-.545.509-1.2-.26-1.189-.554-1.183-.521.54-.509 1.199z" class="cls-12" transform="translate(-408.876 -312.389)"/>
                        <path id="Path_2599" d="M410.479 354.132c.012.659.26 1.189.554 1.184s.521-.545.509-1.2-.26-1.189-.554-1.183-.521.541-.509 1.199z" class="cls-12" transform="translate(-409.565 -329.816)"/>
                        <path id="Path_2600" d="M411.625 383.115c.012.66.26 1.189.554 1.183s.521-.544.509-1.2-.26-1.189-.554-1.183-.522.542-.509 1.2z" class="cls-12" transform="translate(-410.254 -347.243)"/>
                        <path id="Path_2601" d="M412.771 412.1c.012.66.26 1.189.554 1.183s.521-.544.509-1.2-.26-1.189-.554-1.183-.521.539-.509 1.2z" class="cls-12" transform="translate(-410.943 -364.669)"/>
                        <path id="Path_2602" d="M413.916 441.081c.013.66.26 1.19.554 1.184s.522-.545.509-1.2-.26-1.189-.554-1.183-.525.54-.509 1.199z" class="cls-12" transform="translate(-411.631 -382.096)"/>
                    </g>
                    <path id="Path_2603" d="M401.567 278.425c.134.04.354-.274.88 0-.2 5.216.926 58.87 1.221 68.343h-1.286c-.324-4.699-1.059-68.417-.815-68.343z" transform="translate(-347.023 -218.738)" style="mix-blend-mode:multiply;isolation:isolate" fill="#83a8de"/>
                    <path id="Path_2604" fill="url(#linear-gradient-15)" d="M402.916 260.57l8.02-12.066s5.635 1.3 5.807 1.76c.229.611-.859 10.761-3.893 14.323 0 0-6.823-2.514-9.934-4.017z" transform="translate(-347.864 -200.816)"/>
                    <path id="Path_2605" fill="url(#linear-gradient-16)" d="M377.525 251.468s6.3 9.921 7.35 10.817c0 0-7.021 3.928-8.222 4.709 0 0-3.921-12.245-3.943-12.965 0 0 3.74-2.043 4.815-2.561z" transform="translate(-329.702 -202.598)"/>
                    <g id="Group_1240" transform="translate(0 29.876)">
                        <g id="Group_1239" transform="translate(17.958)">
                            <path id="Path_2606" d="M309.885 234.351a37.17 37.17 0 0 0 5.925 3.232c1.242-2.124 2.559-4.13 2.559-4.13s-4.437-5.607-5.081-3.994a35.191 35.191 0 0 1-3.403 4.892z" class="cls-14" transform="translate(-309.885 -219.065)"/>
                            <path id="Path_2607" d="M327.606 218.208c.132-.135-1.3-1.729 2.591-5.678a19.457 19.457 0 0 0-3.838-3.112c-1.515-.721-6.234 1.587-7.1 6.445-.433 2.429-1.887 3.89-1.744 4.669s.4 1.167 1.75 1.241c.3.017.665.607.889.68a29.856 29.856 0 0 1 4.714-.455 1.957 1.957 0 0 0 1.855-1.352c.377-1.107.809-2.363.883-2.438z" class="cls-14" transform="translate(-314.466 -207.113)"/>
                            <path id="Path_2608" d="M334.111 218.99c-.073-.116-.408-.848.255-2.29.087-.189.2-.4.322-.609l.079-.134c.136-.224.287-.458.47-.709l.019-.024c.172-.236.374-.487.592-.746.057-.067.115-.135.175-.2.242-.278.5-.565.8-.869s-.03-.057-.084-.158l-.1-.183-.134-.239a6.522 6.522 0 0 0-4.937-2.156c-.046.006-.084.027-.128.035-2.026.357-3.187 2.974-3.113 3.456a1.638 1.638 0 0 0 .033.266c.114.963.435 3.92 1.272 4.859.935 1.049 1.154.31 2.3 1.055.693.447 1.582-.517 2.179-1.354z" class="cls-15" transform="translate(-320.972 -207.93)"/>
                            <path id="Path_2609" d="M338.147 226.229c-1.793-2.715-4.74.333-5.173.623a34.159 34.159 0 0 1-4.179 1.116c-4.423 1.314-4.648 4-4.648 4 1.114.462 6.338-.168 6.789-.373a27.052 27.052 0 0 0 2.733-1.677c.105-.055 2.4-1.73 3.737-2.509.371-.216 1.064-.691.741-1.18z" class="cls-14" transform="translate(-318.46 -216.626)"/>
                            <path id="Path_2610" d="M349.521 206.9a47.827 47.827 0 0 0-6.56-2.031 21.005 21.005 0 0 0-3.622.553s7.77 2.828 9.206 3.4a1.227 1.227 0 0 0 1.343-.23 1.008 1.008 0 0 0-.367-1.692z" class="cls-14" transform="translate(-327.595 -204.45)"/>
                            <path id="Path_2611" d="M346.257 207.47c-1.882-.757-6.5-2.474-6.627-2.555-.155-.1-3.671-1.286-4.163-1.055-.385.181-2.123 1.2-2.123 1.2.3.591 4.343.709 5.769 1.7a10.647 10.647 0 0 0 3.676 1.363 3.759 3.759 0 0 0 2.752.927c1.566-.322 1.033-1.45.716-1.58z" class="cls-14" transform="translate(-323.99 -203.831)"/>
                            <path id="Path_2612" d="M338.358 210.568c-.195-.417-.36-.759-.514-1.059a7.735 7.735 0 0 0-2.219-2.646c-1.619-1.23-3.935-3.041-4.289-2.961a17.884 17.884 0 0 0-3.233.939c-.165.12-1.63 2.268-1.63 2.268 1.069.254 5.753-.134 5.833-.046a18.77 18.77 0 0 0 2.64 2.1c.89 1.553 1.685 2.15 2.3 2.305a.994.994 0 0 0 .837-.1.72.72 0 0 0 .275-.8z" class="cls-14" transform="translate(-319.859 -203.872)"/>
                            <path id="Path_2613" d="M328.651 210.042a9.694 9.694 0 0 0-2.782-2.2c-.949-.459-1.783-.89-1.783-.89-.539.289-.445-1.039-1.236-.869a12.05 12.05 0 0 0-2.3 2.254c-1.966 4.474-2.8 7.109-3.028 8.729-.317 2.247.468 2.487.468 2.487a19.881 19.881 0 0 1 1.208-3.083c.121-.313 3.252-.371 3.01-2.242a4.89 4.89 0 0 1 1.884-4.6 3.452 3.452 0 0 0 .777.367 6.407 6.407 0 0 1 2.565 1.517 2.321 2.321 0 0 0 1.276.755c.405.054 2.023.352-.059-2.225z" class="cls-14" transform="translate(-314.435 -205.174)"/>
                        </g>
                        <path id="Path_2614" fill="url(#linear-gradient-17)" d="M291.049 238.934c.161-.313-7.685-5.34-7.685-5.34s-25.628 35.037-16.584 41.747 23.071-2.541 34.1-4.527c0 0 .694-14.046-.583-23.6a165.345 165.345 0 0 1-22.967 17.152s5.453-9.356 13.719-25.432z" transform="translate(-264.847 -221.727)"/>
                        <path id="Path_2615" d="M287.816 237.856c2.266 1.49 5.169 3.449 5.07 3.64-5.946 11.564-11.063 21.437-13.632 25.313-2.184 1.953-2.252 3.634-1.011 5.057 2.422 2.776 6.5 1.312 8.624-.046 3.062-1.958 4.971-8.433 8.69-8.806 1.46-.146 8.8 1.523 10.239 1.442.02-.227-3.1 8.809-3.075 8.921-9.759 1.757-22.957 10.706-34.1 4.528-1.888-3.708.364-5.1 2.153-7.93a43.539 43.539 0 0 0 2.427-4.064c2.647-5.429 2.318-10.133 7.939-13.988 4.718-3.241 5.875-8.223 6.676-14.067z" transform="translate(-266.684 -224.289)" style="mix-blend-mode:multiply;isolation:isolate" fill="url(#linear-gradient-18)" opacity="0.55"/>
                    </g>
                    <path id="Path_2616" d="M324.494 287.048a9.3 9.3 0 0 1-2.982-2.13c-1.339-1.461-3.043-8.459-4.26-9.372s-10.529-1.278-11.076.73 3.895 1.461 5.9 1.582c0 0-6.694-.3-6.755 1.278s4.808 1.231 6.938 1.224c0 0-6.268.176-5.9 1.941s6.025.669 6.025.669-6.071-.05-5.416 2.008 5.964-.182 6.451.3 3.347 5.112 4.929 4.93a17.451 17.451 0 0 1 4.686.669z" class="cls-14" transform="translate(-289.184 -216.633)"/>
                    <path id="Path_2617" fill="url(#linear-gradient-19)" d="M341.951 279.672l-5.964 8.348s28.6 27.651 40.044 29.2 33.221-40.372 20.266-48.55c-13.206-8.337-17.953 32.818-19.9 32.453s-34.446-21.451-34.446-21.451z" transform="translate(-307.621 -212.272)"/>
                    <path id="Path_2618" d="M339.486 289.74a12.1 12.1 0 0 0 5.048-.01c5.42-.772 4.188.778 6.821 3.331 4.139 4.014 7.939 4.341 13.067 6.263 4.491 1.683 6.825 5.6 10.846 7.824 5.8 3.2 9.876-7.518 10.893-11.2 1.808-6.542 1.036-10.51 2.093-15.566a23.548 23.548 0 0 1 6.511-11.887 7.74 7.74 0 0 1 1.531.739c12.955 8.179-8.824 50.1-20.266 48.55s-40.045-29.2-40.045-29.2l.445-.623a7.363 7.363 0 0 0 3.056 1.779z" transform="translate(-307.621 -212.839)" style="mix-blend-mode:multiply;isolation:isolate" fill="url(#linear-gradient-20)" opacity="0.55"/>
                </g>
                <g id="Group_1250">
                    <path id="Path_2619" d="M173.545 110.708s-2.586 9.521 5.662 15.122c0 0 11.013-11.38-5.662-15.122z" class="cls-12" transform="translate(-116.01 -106.372)"/>
                    <path id="Path_2620" d="M97.337 176.771l-5.4-2.342s-.305 3.279-4.888 5.713-11.609 7.118-7.943 23.208 22.024 4.481 23.792-3.055 1.771-20.978-5.561-23.524z" class="cls-12" transform="translate(-58.845 -144.686)"/>
                    <path id="Path_2621" d="M130 176.865c-4.512-1.518-7.029-6.633-11.047-9.122-.87-.539-2.673-1.464-3.437-2.062.476 5.33.392 18.471-4.353 26.2 0 0-.458 13.137 12.526 15.122s10.54-12.831 10.54-12.831-4.02-3.257-4.229-17.307z" class="cls-14" transform="translate(-78.734 -139.426)"/>
                    <path id="Path_2622" d="M137.162 176.832c.081 3.245-.7 7.8 1.687 11.522a11.132 11.132 0 0 0 7.9 5.261 48.7 48.7 0 0 1-1.15-10.55c-3.48-1.171-5.775-4.478-8.486-7.074.017.281.042.561.049.841z" class="cls-16" transform="translate(-94.329 -145.625)"/>
                    <path id="Path_2623" d="M121.4 198.335c-1.177-3.666-2.989-7.127-3.209-11.04-.352-6.257-.68-13.276.525-19.695-.927-.548-2.5-1.37-3.2-1.919.476 5.33.392 18.471-4.353 26.2 0 0-.458 13.137 12.526 15.122.359.055.7.092 1.037.122a52.722 52.722 0 0 1-3.326-8.79z" class="cls-15" transform="translate(-78.734 -139.426)"/>
                    <path id="Path_2624" d="M120.879 110.708s19.552.458 20.774 7.943.407 7.994.509 10.54c.08 2.009 1.62 9.156-1.089 15.584a7.224 7.224 0 0 1-8.21 4.181c-4.051-.9-9.217-3.091-11.983-7.545-2.9-4.672-.815-6.008-3.87-7.026-5.963-1.988-7.536-8.1-.713-8.758a3.917 3.917 0 0 1 4.277 3.259s-3.361-16.701.305-18.178z" class="cls-14" transform="translate(-79.128 -106.372)"/>
                    <g id="Group_1242" transform="translate(61.027 24.614)">
                        <path id="Path_2625" d="M184.888 162.241a1.028 1.028 0 1 1-1.173-.65.954.954 0 0 1 1.173.65z" class="cls-12" transform="translate(-182.882 -161.566)"/>
                    </g>
                    <g id="Group_1243" transform="translate(53.216 25.626)">
                        <path id="Path_2626" d="M165.477 164.839a1.12 1.12 0 1 1-1.278-.709 1.039 1.039 0 0 1 1.278.709z" class="cls-12" transform="translate(-163.292 -164.104)"/>
                    </g>
                    <g id="Group_1244" transform="translate(59.22 27.7)">
                        <path id="Path_2627" fill="#434042" d="M179.063 175.065l-.1.01a.268.268 0 0 1-.3-.229.273.273 0 0 1 .256-.282c.58-.055.948-.189 1.045-.377.156-.3-.267-.87-.576-1.287-.121-.164-.234-.317-.314-.448a9.768 9.768 0 0 1-.723-2.859.282.282 0 0 1 .559-.063 9.628 9.628 0 0 0 .657 2.666c.073.12.177.26.288.41.406.547.91 1.228.615 1.8-.187.356-.648.573-1.407.659z" transform="translate(-178.351 -169.304)"/>
                    </g>
                    <g id="Group_1245" transform="translate(56.728 35.456)">
                        <path id="Path_2628" fill="url(#linear-gradient-21)" d="M174.639 190.185a3.272 3.272 0 0 1-2.437-.933.281.281 0 0 1 .363-.43c1.831 1.546 2.95.445 3 .4a.281.281 0 0 1 .4.394 2.311 2.311 0 0 1-1.326.569z" transform="translate(-172.102 -188.756)"/>
                    </g>
                    <g id="Group_1246" transform="translate(51.99 24.053)">
                        <path id="Path_2629" d="M160.526 161.43a.281.281 0 0 1-.177-.518 5.5 5.5 0 0 1 3.876-.625.281.281 0 1 1-.13.547 4.978 4.978 0 0 0-3.448.554.277.277 0 0 1-.121.042z" class="cls-12" transform="translate(-160.217 -160.159)"/>
                    </g>
                    <g id="Group_1247" transform="translate(60.415 23.292)">
                        <path id="Path_2630" d="M184.636 159.275a.281.281 0 0 1-.193-.052 2.857 2.857 0 0 0-2.689-.111.281.281 0 1 1-.248-.5 3.391 3.391 0 0 1 3.268.16.281.281 0 0 1-.138.507z" class="cls-12" transform="translate(-181.348 -158.25)"/>
                    </g>
                    <path id="Path_2631" d="M105.74 103.209c3.141-1.2 16.712-8.968 29.005 4.142 0 0 .745 12.959-17.117 11.941 0 0-3.05 4.091-3.149 7.843a.787.787 0 0 1-.784.8c-.727-.016-2.223-1.426-3.084-3.779-.4-1.091-2.908-5.2-5.448-2.519-3 3.157 2.012 5.9 2.012 5.9s-.171 5.281-.248 6.617c0 0-14.391-7.782-9.045-22.421 2.141-5.865 5.339-7.563 7.858-8.524z" class="cls-12" transform="translate(-70.031 -99.834)"/>
                    <path id="Path_2632" d="M100.87 111.834c1.612.372 6.336 1.162 9.089-.629 4.6-2.994 9-5 14.234-2.9 2.457.987 5.457 2.584 7.765.276a9.061 9.061 0 0 0 2.309-3.45c-11.632-9.947-23.745-3.047-26.69-1.924-2.508.957-5.689 2.648-7.83 8.452a8.288 8.288 0 0 1 1.123.175z" class="cls-13" transform="translate(-71.869 -99.834)"/>
                    <path id="Path_2633" fill="url(#linear-gradient-22)" d="M195.883 298.1c.758-1.24 2.911-3.559 3.054-4.856a9.312 9.312 0 0 1 .606-2.44l-7.276-13.294c-2.444-18.177-8.808-38.544-10.132-39.664s-13.318-7.23-13.318-7.23c2.344 1.837 4.662 17.261 5.252 22.607s2.618 19.552 5.674 26.731c2.22 5.217 10.648 14.867 15.091 19.754.348-.508.694-1.028 1.049-1.608z" transform="translate(-113.398 -178.469)"/>
                    <path id="Path_2634" d="M184.885 283.754c-2.589-6.361-5.342-11.861-4.81-18.892.223-2.947-1.67-4.04-2.576-6.67-.919-2.669-.439-5.081-.355-7.82.171-5.521-1.708-11.617-3.343-17.179-2.692-1.408-4.986-2.577-4.986-2.577 2.344 1.837 4.662 17.261 5.252 22.607s2.618 19.552 5.674 26.731c1.349 3.17 4.99 7.974 8.636 12.354-1.24-2.873-2.367-5.79-3.492-8.554z" class="cls-32" transform="translate(-113.398 -178.469)"/>
                    <path id="Path_2635" fill="url(#linear-gradient-23)" d="M71.247 232.266a55.586 55.586 0 0 0 15.909-6.019s10.206 13.8 15.557 13.5c0 0 4.6-11.754 4.133-13.2l11.3 6.2s-2.866 21-2.481 30.166 7.717 52.546 7.717 52.546H69.414s10.183-39.512 8.757-52.342-2.24-24.843-6.924-30.851z" transform="translate(-53.63 -175.842)"/>
                    <path id="Path_2636" d="M152.176 260.161l-1.095.114c.3 4.049 1.12 61.428-.165 75.58h1.762c-.214-1.839-.233-71.945-.502-75.694z" class="cls-32" transform="translate(-102.635 -196.234)"/>
                    <path id="Path_2637" d="M173.573 345.921h11.4s-7.332-43.381-7.717-52.546a137.415 137.415 0 0 1 .889-16.473c-.431 1-.844 2.006-1.207 3.028a6.983 6.983 0 0 1-1.526 2.171 10.005 10.005 0 0 0-2.606 7.312 24.693 24.693 0 0 1-.39 7.879c-1.257 4.744 2.834 7.148 4.4 11.394a15.779 15.779 0 0 1-1.617 13.682 53.715 53.715 0 0 0-3.131 5.174c-.7 1.54.374 2.229 1.123 3.632 2.341 4.387 3.075 8.625 1.035 13.3-.192.495-.417.974-.653 1.447z" class="cls-34" transform="translate(-115.217 -206.299)"/>
                    <path id="Path_2638" d="M87.744 345.44a19.277 19.277 0 0 1 2.139-8.993c1.961-4.035 3.181-5.251 1.26-9.521a16.094 16.094 0 0 1-1.131-9.235c.386-2.917 1.848-6.18 1.594-9.123-.173-2-3.548-3.946-4.478-5.807a16.429 16.429 0 0 1-2.078-8.395c.16-2.488 1.28-6.134-.077-8.4-2.314-3.866-5.873-6.556-8.873-9.866.864 5.13 1.4 10.968 2.073 17 1.426 12.831-8.757 52.342-8.757 52.342z" class="cls-34" transform="translate(-53.63 -205.818)"/>
                    <path id="Path_2639" fill="url(#linear-gradient-24)" d="M156.951 226.247l-4.024 13.5 7.026 3.788 2.031-14.284z" transform="translate(-103.844 -175.842)"/>
                    <path id="Path_2640" fill="url(#linear-gradient-25)" d="M108.214 220.191l-5.413 4.683L113.47 242.3l9.318-6.186z" transform="translate(-73.705 -172.201)"/>
                    <path id="Path_2641" fill="#0f001a" d="M156.034 314.7l-16.021 45.981 2.062.687 46.01-45.981-2.062-.687z" transform="translate(-96.079 -229.024)"/>
                    <path id="Path_2642" d="M161.206 316.42l-16.021 45.98h29.36l16.65-45.981z" class="cls-12" transform="translate(-99.189 -230.06)"/>
                    <path id="Path_2643" d="M226.233 397.675s5.467-.035 5.43 1.073a2.316 2.316 0 0 1-.554 1.589s-2.041 1.743-3.444 1.743-4.842.022-4.572-1.1c.444-1.849 3.1-1.084 3.8-1.047s-1.459-.061-1.459-.061z" class="cls-15" transform="translate(-146.024 -278.916)"/>
                    <path id="Path_2644" d="M227.231 390.684s5.443-.035 5.406 1.068a2.308 2.308 0 0 1-.552 1.581s-1.949 1.949-3.347 1.949-5.934.667-5.676-1.209 4.131-1.182 4.83-1.145-1.453-.061-1.453-.061z" class="cls-15" transform="translate(-146.008 -274.713)"/>
                    <path id="Path_2645" d="M229.124 383.143s5.713-.037 5.674 1.121a2.421 2.421 0 0 1-.579 1.66s-2.046 2.046-3.513 2.046-6.639 1-6.369-.965 4.748-1.544 5.482-1.506-1.525-.064-1.525-.064z" class="cls-15" transform="translate(-146.775 -270.179)"/>
                    <path id="Path_2646" d="M231.271 374.078s6.658-.043 6.613 1.307a2.822 2.822 0 0 1-.675 1.934s-2.384 2.384-4.094 2.384-7.737 1.169-7.423-1.125 5.534-1.8 6.388-1.754-1.777-.075-1.777-.075z" class="cls-15" transform="translate(-147.589 -264.728)"/>
                    <g id="Group_1248" transform="translate(45.029 74.983)" style="mix-blend-mode:multiply;isolation:isolate">
                        <path id="Path_2647" d="M144.6 289.758c0 1.034-.411 1.871-.919 1.871s-.919-.837-.919-1.871.411-1.871.919-1.871.919.838.919 1.871z" class="cls-39" transform="translate(-142.76 -287.887)"/>
                        <path id="Path_2648" d="M144.6 324.874c0 1.033-.411 1.871-.919 1.871s-.919-.838-.919-1.871.411-1.871.919-1.871.919.838.919 1.871z" class="cls-39" transform="translate(-142.76 -309.001)"/>
                        <path id="Path_2649" d="M144.6 359.99c0 1.033-.411 1.871-.919 1.871s-.919-.838-.919-1.871.411-1.871.919-1.871.919.838.919 1.871z" class="cls-39" transform="translate(-142.76 -330.115)"/>
                        <path id="Path_2650" d="M144.6 395.106c0 1.034-.411 1.871-.919 1.871s-.919-.838-.919-1.871.411-1.871.919-1.871.919.838.919 1.871z" class="cls-39" transform="translate(-142.76 -351.229)"/>
                        <path id="Path_2651" d="M144.6 430.222c0 1.033-.411 1.871-.919 1.871s-.919-.838-.919-1.871.411-1.871.919-1.871.919.837.919 1.871z" class="cls-39" transform="translate(-142.76 -372.344)"/>
                    </g>
                    <path id="Path_2652" d="M134.905 381.329a18.223 18.223 0 0 0 5.524-.752c3.641-.928 14.057-1.436 14.844.766s-1.275 1.715-7.92 1.194c0 0 8.249.226 8.567 2.959s-10.709-.365-10.709-.365 9.958 1.9 9.194 4.1-10.336-1.006-10.336-1.006 7.79 1.935 6.365 3.717-7.332-1.324-8.961-1.069-3.259 3.793-11.914-1.642z" class="cls-15" transform="translate(-89.794 -268.159)"/>
                    <path id="Path_2653" fill="url(#linear-gradient-26)" d="M75.825 297.188l-4.652 11.322s-37.573-9.627-40.835-14.284 9.928-54.3 17.108-52.926 6.823 29.936 6.823 29.936-7.027 14.87-6.62 15.176 28.176 10.776 28.176 10.776z" transform="translate(-29.829 -184.876)"/>
                    <path id="Path_2654" d="M65.315 311.145c-.407-.305 6.62-15.176 6.62-15.176s.08-6.572-.629-13.561c-.119.893-.918 6.523-2.3 7.378-10.588 6.553-.076 11.074-9.018 18.9-1.86 1.628-.4 7.768 4.517 8.84 2.8.611 7.123-1.085 12.49 4.5 3.29 3.427 4.877 4.706 9.779 3.423 1.943-.509 3.878-.991 5.826-1.367l.89-2.165s-27.767-10.466-28.175-10.772z" class="cls-32" transform="translate(-47.495 -209.61)"/>
                    <path id="Path_2655" d="M111.676 241.4c-.2-2.378-1.17-6.328-3.6-7.932a6.569 6.569 0 0 0-7.965.926 22.507 22.507 0 0 1-2.072-9.7 10.423 10.423 0 0 1 2.215-5.346 11.942 11.942 0 0 1 4.138-3.507c-.028.014.871-2.884.871-2.884-2.107 2.076-6.284 4.494-8.249 8.99-1.067 2.441-.818 8.105 2.4 13.115-2.1 2.654-2.435 5.507-.607 8.115 1.671 2.382 5.37 3.264 7.754 3.385a1.621 1.621 0 1 0-.119-.938c-2.236-.132-5.412-.942-6.8-2.849-1.462-2.008-1.356-4.828.548-7.211.1-.114.632-.575.777-.7a5.458 5.458 0 0 1 6.739-.55c1.917 1.372 2.823 4.771 3.029 7a1.623 1.623 0 1 0 .941.087z" class="cls-12" transform="translate(-69.886 -167.853)"/>
                    <g id="Group_1249" transform="translate(51.917 48.703)">
                        <path id="Path_2656" d="M162.245 223.681a19.4 19.4 0 0 1 3.54 2.143 9.611 9.611 0 0 1 2.358 4.866 60.335 60.335 0 0 1-.151 6.689 15.671 15.671 0 0 1-4.937 9.851l.794.509c1.927-1.638 5.112-5.5 5.366-10.17.139-2.557.519-5.122-.013-7.662a10.069 10.069 0 0 0-3.718-5.907 12.835 12.835 0 0 0-2.56-1.526 5.9 5.9 0 0 1-1.193-.489z" class="cls-12" transform="translate(-161.055 -221.98)"/>
                        <path id="Path_2657" d="M164.726 283.313a2.354 2.354 0 1 1-2.059-2.615 2.353 2.353 0 0 1 2.059 2.615z" class="cls-12" transform="translate(-160.035 -257.276)"/>
                        <path id="Path_2658" fill="#e5e5e5" d="M165.195 284.581a1.441 1.441 0 1 1-1.26-1.6 1.44 1.44 0 0 1 1.26 1.6z" transform="translate(-161.411 -258.651)"/>
                    </g>
                </g>
            </g>
        </g>
        <path id="Rectangle_1487" fill="url(#linear-gradient-27)" d="M0 0H197.674V30.122H0z" transform="translate(0 203.82)"/>
    </g>
</svg>
