<svg xmlns="http://www.w3.org/2000/svg" id="Group_3466" width="176.305" height="158.719" viewBox="0 0 176.305 158.719">
    <defs>
        <style>
            .cls-1{fill:#db8f4e}.cls-2{fill:#db9d68}.cls-3{fill:#e4eaef}.cls-4{fill:#042047}.cls-5{fill:#4c275f}.cls-6{fill:#65397c}.cls-7{fill:#fdfeff}.cls-10{fill:#ffc28f}
        </style>
    </defs>
    <path id="Path_2549" d="M416.245 215.47c4 1.475 2.95 8.851-2.257 15.637s-14.221 21.789-16.862 23.839-27.026-10.09-32.455-11.521c-14.59 4.426-17.511 1.637-10.474-1.475l11.271-4.426 27.822 6.2c5.267-8.689 8.261-14.575 9.81-17.2 4.427-7.602 7.628-10.479 13.145-11.054z" class="cls-1" transform="translate(-269.573 -129.599)"/>
    <path id="Path_2550" d="M363.422 231.405c-1.888-1.033-5.709-2.95-7.258-2.655s4.263 4.042 4.263 4.042z" class="cls-2" transform="translate(-267.025 -123.302)"/>
    <path id="Path_2551" d="M411.318 215.47c-5.517.575-9.819 2.8-14.2 10.3-1.549 2.626-3.608 8.467-8.874 17.156l-25.548-5.037-1.785 6.727c7.14 4.5 29.665 13.2 32 11.384 2.641-2.051 10.976-18.244 16.154-24.9s6.25-14.169 2.253-15.63z" class="cls-3" transform="translate(-264.645 -129.599)"/>
    <path id="Path_2552" d="M396.75 189.813c5.5-.457 14.678-.443 18.027 6.594 2.626 5.517-3.26 16.98-3.26 16.98l-8.851-2.346z" class="cls-4" transform="translate(-247.614 -141.869)"/>
    <path id="Path_2553" d="M411.212 271.47l17.132-20.93-33.93 3.054c-.1.105-.1 17.888 0 17.876z" class="cls-5" transform="translate(-257.154 -112.933)"/>
    <path id="Path_2555" d="M419.4 250.59c1.482 4.577 1.117 2.488 0 20.793h-19.7c.127-.546-4.3-17.439-4.208-17.665z" class="cls-6" transform="translate(-248.213 -112.909)"/>
    <path id="Path_2556" d="M421.716 215.763a40.14 40.14 0 0 0-8.468-.811s-13.277-.369-13.808.634a9.8 9.8 0 0 0-6.668 3.363 18.026 18.026 0 0 0-5.06 12.775c0 1.874-.3 8.512 0 15.534.428 10.326 1.475 23.353 1.475 23.353s21.759 2.773 33.93-3.054a236.242 236.242 0 0 1 0-24.975c.723-9.825-1.401-26.819-1.401-26.819z" class="cls-7" transform="translate(-251.971 -129.876)"/>
    <path id="Path_2557" d="M393.512 194.494c-2.832 9.471-3.127 16.965-.251 21.892 2.227 3.836 7.125 3.408 7.125 3.408v5.473s-4.145 4.75-1.387 6.933 7.553.206 10.8-2.183a11.8 11.8 0 0 0 3.363-4.234s-1.372-.162-2.685-2.331c-1.033-1.711.325-8.468.325-8.468s2.95 2.449 5.266-1.815c1.3-2.434.31-6.9-2.759-5.989a11.684 11.684 0 0 0-6.727-13.837c-9.515-4.307-13.07 1.151-13.07 1.151z" class="cls-1" transform="translate(-250.232 -140.9)"/>
    <path id="Path_2558" d="M429.087 215.66c4.145 1.475 6.874 5.547 4.986 14.191s-3.57 26.716-5.119 29.814-39.831 9.456-39.831 9.456c-7.686 1.21-14.752-.885-15.416-2.346-1.372-2.818 9.736 0 14.56-1.977l30.389-11.669c1.608-12.347 2.626-20.225 3.186-22.851 1.845-8.678 3.306-16.078 7.245-14.618z" class="cls-1" transform="translate(-259.123 -129.596)"/>
    <path id="Path_2559" d="M402.368 194.551s5.134.531 5.119 3.585.384 9.884 6.034 10.666c0 0 3.688-9.515-.369-14.678a7.745 7.745 0 0 0-7.6-3.231 25.714 25.714 0 0 0-11.035-.929c-7.037.856-2.434 12.938-2.434 12.938.225-1.285 2.585-9.959 10.285-8.351z" class="cls-4" transform="translate(-250.533 -141.827)"/>
    <path id="Path_2560" d="M407.067 202.948s-.472 4.883-1.593 4.617c-2.065-.487-1.018-5.606-1.018-5.606z" class="cls-4" transform="translate(-244.078 -136.018)"/>
    <path id="Path_2562" d="M398.4 223.3l8.35-10.9 4.426 3.836s-2.759 5.665-6.358 7.066c-5.533 2.124-6.418-.002-6.418-.002z" class="cls-7" transform="translate(-246.83 -131.057)"/>
    <path id="Path_2563" d="M400 223.116a72.818 72.818 0 0 1-1.475-10.326l-2.685 3.762s-1.74 3.821-.14 5.448a5.119 5.119 0 0 0 4.3 1.116z" class="cls-7" transform="translate(-248.434 -130.872)"/>
    <path id="Path_2564" d="M385.11 265.079l1.518 6.255c9.671-1.154 36.59-6.756 37.957-9.535 1.594-3.188 3.34-21.893 5.268-30.684s-1-12.139-5.268-13.718-6.517 4.7-8.415 13.718c-.577 2.7-1.139 10.219-2.794 22.927z" class="cls-3" transform="translate(-254.153 -131.448)"/>
    <path id="Path_2565" d="M386.333 249.949c-1.9-1.047-5.709-2.95-7.258-2.67s4.248 4.042 4.248 4.042z" class="cls-2" transform="translate(-256.139 -114.496)"/>
    <path id="Path_2566" d="M332.085 191.681a11.035 11.035 0 0 0-12.082.944c-6.447 4.544-5.591 7.951-6.181 10.5-.738 3.157-2.7 5.665-7.376 6.742s-8.32 4.691-7.376 10.577-1.106 7.819-2.67 10.843-.944 9.427 4.558 13.9c9.309 7.568 19.3-1.475 19.3-1.475l9.84-12.554z" class="cls-4" transform="translate(-295.655 -141.554)"/>
    <path id="Path_2567" fill="#343434" d="M267.546 82.248l-2.936 30.743 18.16-9.751 3.408-30.64z" transform="translate(-205.432 34.5)"/>
    <path id="Path_2568" d="M343.774 252.71l-1.4 17.91-17.3-.095c.11.075-5.046-17.849-5.033-17.816z" class="cls-5" transform="translate(-295.483 -111.902)"/>
    <path id="Path_2569" d="M306.127 250.63c-1.637 3.511-3.21 5.892-1.34 12.6 2.272 7.715 2.625 8.224 2.647 8.231h19.741c.2-.176 3.032-17.425 3.013-17.349z" class="cls-6" transform="translate(-291.795 -112.89)"/>
    <path id="Path_2570" fill="#fff" d="M309.709 215.962a15.785 15.785 0 0 1 5.532-.959s13.277-.384 13.808.62c5.458.62 6.668 3.363 6.668 3.363s6.742 8.261 6.624 16.227a76.332 76.332 0 0 1-1.475 12.038c-2.3 10.09-1.475 23.352-1.475 23.352s-21.759 2.759-33.93-3.068c0 0 5.975-14.752 5.193-25.9-.813-9.785-.945-25.673-.945-25.673z" transform="translate(-290.996 -129.855)"/>
    <path id="Path_2571" d="M335.888 196.153c1.962 9.692 1.564 17.171-1.741 21.833-2.567 3.614-7.376 2.744-7.376 2.744l-.5 5.444s5.237 5.591 2.286 7.509-7.819.944-12.1-3.644a17.706 17.706 0 0 1-2.95-4.514s1.372 0 2.877-2.08c1.18-1.608.442-8.453.442-8.453s-3.172 2.154-5.06-2.3c-1.092-2.552.31-6.9 3.29-5.709a11.654 11.654 0 0 1 7.966-13.159c9.813-3.439 12.866 2.329 12.866 2.329z" class="cls-10" transform="translate(-288.173 -140.405)"/>
    <path id="Path_2572" d="M310.076 215.687c-4 1.475-6.624 5.37-4.794 13.719s3.437 25.772 4.927 28.767 34.594 9.486 38.473 9.132c8.689-.811 14.5-10.917 9.84-9.736l-8.94 4.426-29.43-10.149c-1.564-11.9-2.537-19.517-3.068-22.128-1.784-8.278-3.184-15.433-7.008-14.031z" class="cls-10" transform="translate(-291.362 -129.579)"/>
    <path id="Path_2575" fill="#efcaaa" d="M333 247.13c1.608.62 6.019-2.7 6.019-2.7l-.428 2.759s-1.3 4.426-3.186 3.865S333 247.13 333 247.13z" transform="translate(-277.908 -115.836)"/>
    <path id="Path_2576" d="M326.555 195.676s-5.163 0-5.429 3.113-1.283 9.81-6.978 10.076c0 0-2.818-9.825 1.711-14.59a7.715 7.715 0 0 1 7.848-2.523s6.727-4.263 11.271 1.18 1.047 12.008 1.047 12.008c-.102-1.254-1.666-10.105-9.47-9.264z" class="cls-4" transform="translate(-287.278 -141.624)"/>
    <path id="Path_2577" d="M313.87 203.082s0 4.9 1.151 4.735c2.11-.31 1.475-5.488 1.475-5.488z" class="cls-4" transform="translate(-286.999 -135.843)"/>
    <path id="Path_2578" fill="#f7dea6" d="M358.672 177.35h37.78a4.632 4.632 0 0 1 4.632 4.632v22.276a4.647 4.647 0 0 1-4.632 4.632h-3.658l3.113 5.562a1.077 1.077 0 0 1-1.475 1.475l-12.687-7.037h-23.073a4.647 4.647 0 0 1-4.632-4.632v-22.276a4.632 4.632 0 0 1 4.632-4.632z" transform="translate(-267.91 -147.713)"/>
    <path id="Path_2579" fill="#ffcb55" d="M383.288 157.26h-47.767a5.9 5.9 0 0 0-5.9 5.9v28.191a5.9 5.9 0 0 0 5.9 5.9h4.632l-3.939 7.037a1.372 1.372 0 0 0 1.859 1.873l16.065-8.851h29.15a5.9 5.9 0 0 0 5.9-5.9v-28.293a5.9 5.9 0 0 0-5.9-5.857z" transform="translate(-279.514 -157.26)"/>
</svg>
