<svg xmlns="http://www.w3.org/2000/svg" width="19.956" height="19.956" viewBox="0 0 19.956 19.956">
    <defs>
        <linearGradient id="linear-gradient" x1="1.494" x2="-.412" y1="-.24" y2="1.396" gradientUnits="objectBoundingBox">
            <stop offset="0" stop-color="#cb39a3"/>
            <stop offset=".493" stop-color="#f54f50"/>
            <stop offset="1" stop-color="#ffd754"/>
        </linearGradient>
        <style>
            .cls-1{fill:url(#linear-gradient)}
        </style>
    </defs>
    <g id="instagram_2_">
        <path id="Path_12949" d="M10.966 5.838a5.12 5.12 0 1 0 5.12 5.12 5.12 5.12 0 0 0-5.12-5.12zm0 8.444a3.323 3.323 0 1 1 3.323-3.323 3.322 3.322 0 0 1-3.323 3.323z" class="cls-1" transform="translate(-.985 -.984)"/>
        <path id="Path_12950" d="M14.092.063c-1.836-.086-6.383-.081-8.221 0a5.963 5.963 0 0 0-4.187 1.614C-.235 3.6.01 6.182.01 9.975c0 3.881-.216 6.407 1.674 8.3 1.927 1.926 4.55 1.674 8.3 1.674 3.845 0 5.172 0 6.531-.524 1.848-.718 3.244-2.37 3.38-5.337.086-1.837.081-6.383 0-8.221-.165-3.5-2.045-5.628-5.8-5.8zM17 17c-1.258 1.258-3 1.146-7.041 1.146-4.157 0-5.825.062-7.041-1.158-1.4-1.394-1.147-3.634-1.147-7.029 0-4.594-.471-7.9 4.139-8.139 1.059-.037 1.371-.05 4.038-.05l.037.025c4.431 0 7.907-.464 8.116 4.146.047 1.052.058 1.368.058 4.03-.003 4.112.075 5.789-1.159 7.029z" class="cls-1" transform="translate(0 -.001)"/>
        <circle id="Ellipse_379" cx="1.197" cy="1.197" r="1.197" class="cls-1" transform="translate(14.108 3.455)"/>
    </g>
</svg>
