<svg xmlns="http://www.w3.org/2000/svg" width="76.159" height="28.12" viewBox="0 0 76.159 28.12">
    <defs>
        <linearGradient id="113lnavk7a" x2="1" y1=".5" y2=".5" gradientUnits="objectBoundingBox">
            <stop offset="0" stop-color="#ea01c0"/>
            <stop offset=".47" stop-color="#563b97"/>
            <stop offset="1" stop-color="#203be9"/>
        </linearGradient>
    </defs>
    <path fill="url(#113lnavk7a)" d="M115.739 126.1c-.05-.049.358-.192 0-.408s-1.061.791-1.7 2.448a4.527 4.527 0 0 1-1.789 2.472c-.369.205-.53-.348-.58-.624s-.321-.348-.394-.252.123.132.123.323-.112-.047-.222-.011.134.635-.1.479-.6.229-.746.169.013-.372-.373-.768-.246-.481-.013-.564.056-1.437.056-1.633.261-.285.2-.111a2 2 0 0 0 .463 1.1c.134.009.1.154.147.209s.248-.209.011-.385a.437.437 0 0 1-.2-.544c.067-.165.362.307.3-.143s.295-3.227.295-3.227c.507.209.474-.252.867-1.009s-.6-.22-1.33-1.394-1.224-.966-1.224-.966c-2.121 3.465-1.074 4.588-1.537 6.668a13.944 13.944 0 0 1-2.4 4.5c-1.6-1.035-1.285-3.154-1.056-3.8a18.053 18.053 0 0 0-.058-3.63c.448-.363 1.1-3.12 1.2-3.267a10.681 10.681 0 0 0 .712-2.53 10.655 10.655 0 0 1 0-1.633s-.063.029-.063-.056a.854.854 0 0 1 0-.436c.073-.225-.116-.169.03-.267s-.2-.477-.317-.45-.261-.154-.261-.154c.261 0 .261-.181.261-.181-.3-.8-.781-.619-1.041-.746a.475.475 0 0 0-.476.042.575.575 0 0 0-.463-.3c-.88-.26-2.052 3.8-1.936 4.5a40.145 40.145 0 0 1-.259 4.37c-.373-.544-2.238-.871-2.238-.871-2.656.726-2.96 5.369-2.945 6.183s-1.589 2.9-1.906 3.162.244-.2-.709-.907-.533-2.178-.287-3.2-.4-2.9-.187-3.358 1.733-4.652 1.876-5.114a7.938 7.938 0 0 0 .131-2.122c-.043-.534-.131-.154-.231-.181s.1-.182.131-.436-.274.071-.131-.083.043-.408-.123-.563-.209-.029-.252-.211.2-.015.246-.142-.145-.363-.679-.632-.621-.029-.867-.042.246.013-.533-.323-1.908 3.568-1.88 4.131-.282 4.885-.282 4.687-.722-.492-2.15-.828-2.874 3.811-3.133 4.719-1.119 2.8-1.373 2.782 0-1.828-.173-2.178a18.207 18.207 0 0 1 .42-3.514c.131-1-1.459-1.532-2.18-1.713s-.737.815-.722 1.786-2.007 4.3-2.354 4.579-.261-.563-.159-.788-.2-.9-.16-1.194.131-.225-.112-.59.446-2.249.459-2.684 1.242-1.7 1.431-1.77-.131-.871-.045-.942.246.142.4.142.058.392.3.59.086 1.089.086 1.089c.2.069.373-.544.435-1.238s-1.1-1.476-1.723-1.793-2.124 1.22-2.124 1.22a11.607 11.607 0 0 0-1.529 2.521c.056-.265.1-.544.142-.829.453-3.546-2.039-4.628-3.521-4.608s-3.357 4.007-3.357 4.007-.7-3.006-1.257-3.486-1.975 0-1.975 0-.289.24-.166.4 1.009 8.055 1.009 8.055a41.391 41.391 0 0 1-3.171 2.8c-.33.1-.246-3.245-.267-3.648a10.4 10.4 0 0 0-.56-1.463c-.09-.363-1.041-.65-1.574-.924s-.854.143-1.043.975a3.06 3.06 0 0 1-.867 1.586c-.214.169-.119.519-.214.623s-1.988 2.9-2.216 2.989-.147-1.624-.093-2.053a2.491 2.491 0 0 0-.026-.78 3.071 3.071 0 0 0-.013-2.178c-.065-.385-.015-.494.187-1.089s-1.776-1.559-2.238-1.532-1.095 4.481-1.095 4.481-2.35 4.432-2.742 4.873-.463-.272-.463-.456-.386.105-.386 0 .267-.142.239-.232-.239-.027-.213-.147.28-.165.28-.165l.013-.234.16.078a22.857 22.857 0 0 1-.132-3.4c.093-1.494.733-2.428.414-2.859s.011-2.871-.132-3.448-1.128-.162-1.694 0-2.257 3.006-2.369 3.069-.408-1.465-.608-1.788-.664-.194-1.4-.29-2.645 3.448-2.645 3.448c.132-2.381-.675-2.265-.92-2.557s-.414-.129-.545-.093-.3 0-1.071.111.358 6.483.619 7.26.56.858.56.858c.4.457.933.363 1.628-.049s-.082-1.844-.082-2.5.989-2.8 1.05-3.285.906-1.584 1.009-1.223-.187 5.51-.041 5.55.041.261.021.4.226.26.72.4.56-.341.6-.633.453-.428.6-.49.267 1.283.373-1.2a10.429 10.429 0 0 1 2.018-4.969c-.906 8.817-.308 10.218 1.071 10.559s3.521-4.929 3.6-5.129.515-.4.351-.181a11.352 11.352 0 0 0 .246 2.359c0 .2.228.481.515.942a1.921 1.921 0 0 0 1.319.7c.31.02.8-.563 1.194-.623s1.214-1.975 1.214-1.975c.619-.432 2.164-3.555 2.164-3.555.187.082.287 6.392.287 6.392-.72.321-3.686 4.719-3.788 5.069a28.374 28.374 0 0 0-.658 2.866 2.718 2.718 0 0 0 .946 2.024c.556.561 1.957.06 2.781-.122s2.264-2.323 2.425-2.744a15.39 15.39 0 0 1 .7-2.966c.433-.7.765-5.7.765-5.7a28.894 28.894 0 0 0 3.232-3.025 28.034 28.034 0 0 1 .125 4.009 4.122 4.122 0 0 1-.31 1.862c-.269.459.082.7.8.726s1.03-.4 1.44-.8.576-.3.494-.621a8.441 8.441 0 0 1 .351-1.623c.021-.28-.269-.3.33-1.662s-.351-5.47-.412-5.911a2.655 2.655 0 0 1 .474-1.662c.287-.26.062-.4.062-.4s.947-2.445 2.162-3.045.865 1.623 1.119 3.367a5.063 5.063 0 0 1-1.4 3.993c-.556.427-.781-.5-.781-.5s.041-.182-.412-.08.021 2.143 1.4 2.359c1.016.162 2.35-.748 3.16-2.662a4.088 4.088 0 0 0 0 1.468c.5 2.55 1.192 2.918 2.482 3.209s2.9-3.77 2.9-3.77c.1 4.677 1.192 5.2 2.225 5.16s2.052-3.267 2.052-3.267c.56 3.594 1.47 3.672 2.264 3.768s3.077-3.151 3.077-3.151a7.935 7.935 0 0 0 2.225 4.31 1.461 1.461 0 0 0 1.826-.212c.177-.309 1.682-3.521 1.751-3.65a3.75 3.75 0 0 0 1.628 2.706c1.069.445 2.524-1.682 2.662-2.127a4.085 4.085 0 0 1 .815-1.123c.959 4.706 2.611 4.644 3.525 4.5s1.7-3.12 1.7-3.12a1.238 1.238 0 0 0 .505-.935 1.789 1.789 0 0 1 .211-.492 3.529 3.529 0 0 0 1.9 2.592c1.85 1.152 3.268-1.056 3.527-1.27s.11-.575.308-.588 1.024-.924.875-1.1 0-.347.173-.4-.075-.588.048-.7.013-.363.187-.372.147-.276.444-.276.257-.036.332-.385.136-.156.2-.276-.16-.013-.209-.06zm-56.513 16.323s-1.14.793-1.617-2.554c0 0 .187-.252 0-.3s-.187-.1-.17-.181.1-.267 0-.3.735-.771.729-1.016.207-.216.291-.39a3 3 0 0 1 .505-.888c.211-.161.446-.314.306-.446s.022-.385.291-.407.063-.152.131-.3.86-1.114 1.345-1.1c-.006 0 .63 6.652-1.809 7.884zm31.877-16.6c-.049.182 0 2.525 0 2.525a21.337 21.337 0 0 1-2.363 2.712c-.345.089-.56-.564-.578-1.056s-.351-.182-.157-.964.56-2.007.56-2.178.53-.693.543-.927.229-.281.422-.517-.205.036.108-.681.56-.287.56-.127c0 0 0 .5.229.515s.351-.3.41-.352.073.739.073.833.244.029.2.218zm3.781-9.214c1.257 2.572-1.367 7.721-1.367 7.721-.459-1.889 1.369-7.721 1.369-7.721zm7.11 9.214c-.049.182 0 2.525 0 2.525a21.949 21.949 0 0 1-2.363 2.712c-.338.089-.56-.564-.578-1.056s-.351-.182-.159-.964.56-2.007.56-2.178.532-.693.545-.927.228-.281.422-.517-.205.036.108-.681.56-.287.56-.127c0 0 0 .5.229.515s.351-.3.41-.352.073.739.073.833.244.029.2.218zm3.773-9.214c1.257 2.572-1.367 7.721-1.367 7.721-.459-1.889 1.369-7.721 1.369-7.721z" transform="translate(-39.809 -115.004)"/>
    <path fill="#2039e8" d="M422.081 134.994c.3-.451 1.231-1.2.989-1.527a2.436 2.436 0 0 0-2.16-1.488c-.084 0-.276-.017-.346.312s-1.265 1.647-.415 2.4 1.639.755 1.932.303z" transform="translate(-350.477 -127.905)"/>
</svg>
