<svg xmlns="http://www.w3.org/2000/svg" width="24.561" height="19.956" viewBox="0 0 24.561 19.956">
    <path fill="#03a9f4" d="M24.561 50.362a10.5 10.5 0 0 1-2.9.8 5.007 5.007 0 0 0 2.215-2.783 10.063 10.063 0 0 1-3.193 1.219 5.035 5.035 0 0 0-8.71 3.443 5.185 5.185 0 0 0 .117 1.148 14.252 14.252 0 0 1-10.38-5.271 5.037 5.037 0 0 0 1.547 6.73 4.973 4.973 0 0 1-2.275-.62v.055a5.058 5.058 0 0 0 4.035 4.947 5.026 5.026 0 0 1-1.317.17 4.452 4.452 0 0 1-.953-.086 5.083 5.083 0 0 0 4.705 3.508 10.117 10.117 0 0 1-6.243 2.148A9.431 9.431 0 0 1 0 65.7a14.176 14.176 0 0 0 7.725 2.26 14.233 14.233 0 0 0 14.331-14.332c0-.223-.008-.437-.018-.651a10.045 10.045 0 0 0 2.523-2.615z" transform="translate(0 -48)"/>
</svg>
