<svg xmlns="http://www.w3.org/2000/svg" width="19.998" height="19.999" viewBox="0 0 19.998 19.999">
    <g>
        <path d="M15.584 12.981l-.007.062c-1.832-.913-2.024-1.035-2.261-.68-.164.246-.642.8-.787.968s-.291.175-.538.062a6.763 6.763 0 0 1-2-1.237 7.56 7.56 0 0 1-1.383-1.725c-.244-.422.267-.482.732-1.362a.458.458 0 0 0-.021-.437c-.062-.125-.56-1.35-.768-1.838s-.406-.425-.56-.425a1.24 1.24 0 0 0-1.14.287c-1.345 1.478-1.006 3 .145 4.625 2.261 2.96 3.466 3.5 5.669 4.261a3.447 3.447 0 0 0 1.567.1 2.564 2.564 0 0 0 1.68-1.188 2.063 2.063 0 0 0 .15-1.187c-.062-.112-.225-.175-.475-.287z" transform="translate(-.997 -1.059)"/>
        <path d="M17.1 2.874C10.692-3.32.088 1.172.084 9.91a9.862 9.862 0 0 0 1.329 4.954L0 20l5.279-1.377A9.975 9.975 0 0 0 20 9.915a9.828 9.828 0 0 0-2.912-7.009zm1.235 7.014a8.3 8.3 0 0 1-12.511 7.085l-.3-.178-3.124.813.837-3.037-.2-.312A8.264 8.264 0 0 1 15.909 4.063a8.156 8.156 0 0 1 2.424 5.824z"/>
    </g>
</svg>
